<?xml version="1.0" encoding="utf-8"?>
<!-- Generator: Adobe Illustrator 24.0.0, SVG Export Plug-In . SVG Version: 6.00 Build 0)  -->
<svg version="1.1" xmlns="http://www.w3.org/2000/svg" xmlns:xlink="http://www.w3.org/1999/xlink" x="0px" y="0px"
	 viewBox="0 0 491 454" style="enable-background:new 0 0 491 454;" xml:space="preserve">
<style type="text/css">
	.st0{display:none;}
	.st1{display:inline;}
	.st2{fill:#ED6A5A;}
	.st3{fill:none;stroke:#3E3E3E;stroke-width:2;stroke-miterlimit:10;}
	.st4{fill:#ED6A5A;stroke:#3E3E3E;stroke-width:2;stroke-miterlimit:10;}
	.st5{fill:#9BC1BC;}
	.st6{fill:#9BC1BC;stroke:#3E3E3E;stroke-width:2;stroke-miterlimit:10;}
	.st7{display:inline;fill:#ED6A5A;stroke:#3E3E3E;stroke-width:2;stroke-miterlimit:10;}
	.st8{fill:#ACA6A5;}
	.st9{fill:#ACA6A5;stroke:#3E3E3E;stroke-width:2;stroke-miterlimit:10;}
</style>
<g id="Layer_1" class="st0">
	<title>gsg-mini-logo</title>
	<g id="Artboard_2" class="st1">
		<g id="logo_3">
			<g>
				<path class="st2" d="M96.8,52.4L96.8,52.4l0.1,0v0.2l0,0v91.7l-13,16.8H37V69.2l13-16.8h10.1l6.6,4.3v-4.2H96.8z M57.6,56.1
					h-5.7L41.1,70.6v34.3l8.3,10.9h21.5l-0.1,7H41v18.5h37.6l14.1-18.2V56h-22v8.5L57.6,56.1z M63.2,100.9V74.8H71v26.1H63.2z"/>
				<path class="st2" d="M101.5,34h30.2v113.5h-30.2V34z M127.7,48.4V37.5h-21.9v10.9H127.7z M105.8,127.4h21.9V56.2h-21.9V127.4z"
					/>
				<path class="st2" d="M136.3,147.5l0.1-95.1h30.1v4.3l6.6-4.3h10.2l12.9,16.8v34l-29.7-0.1l-0.1,44.4L136.3,147.5z M192.2,83.4
					V70.6L181,56h-5.6L162.6,64V56h-22.1v71.5h21.9V74.4h7.9v9.1L192.2,83.4z"/>
				<path class="st2" d="M231,147.5h-30.1V34H231V147.5z M227,127.5v-90h-21.8v89.9L227,127.5z"/>
				<path class="st2" d="M235.6,147.5V69.3l13-16.8h46.9v78.2l-13,16.9H235.6z M269.8,100.7v8.6h-30v18.2h37.5l14.1-18.3V82.4h-29.8
					v-8.6h29.8V56h-40.5l-11.1,14.4v30.3L269.8,100.7z"/>
			</g>
			<g>
				<path class="st3" d="M96.8,52.4L96.8,52.4l0.1,0v0.2l0,0v91.7l-13,16.8H37V69.2l13-16.8h10.1l6.6,4.3v-4.2H96.8z M57.6,56.1
					h-5.7L41.1,70.6v34.3l8.3,10.9h21.5l-0.1,7H41v18.5h37.6l14.1-18.2V56h-22v8.5L57.6,56.1z M63.2,100.9V74.8H71v26.1H63.2z"/>
				<path class="st3" d="M101.5,34h30.2v113.5h-30.2V34z M127.7,48.4V37.5h-21.9v10.9H127.7z M105.8,127.4h21.9V56.2h-21.9V127.4z"
					/>
				<path class="st3" d="M136.3,147.5l0.1-95.1h30.1v4.3l6.6-4.3h10.2l12.9,16.8v34l-29.7-0.1l-0.1,44.4L136.3,147.5z M192.2,83.4
					V70.6L181,56h-5.6L162.6,64V56h-22.1v71.5h21.9V74.4h7.9v9.1L192.2,83.4z"/>
				<path class="st3" d="M231,147.5h-30.1V34H231V147.5z M227,127.5v-90h-21.8v89.9L227,127.5z"/>
				<path class="st3" d="M235.6,147.5V69.3l13-16.8h46.9v78.2l-13,16.9H235.6z M269.8,100.7v8.6h-30v18.2h37.5l14.1-18.3V82.4h-29.8
					v-8.6h29.8V56h-40.5l-11.1,14.4v30.3L269.8,100.7z"/>
			</g>
			<path class="st4" d="M70.9,74.7h-7.8v26.1h7.8L70.9,74.7z M70.6,64.4v-8.5h21.9v67.1l-14.1,18.2H41v-18.4h29.8l0.1-7.1H49.3
				l-8.2-10.9V70.6l10.7-14.5h5.7L70.6,64.4z M66.6,52.5v4.3L60,52.4H49.9L37,69.2v92.1h46.7l13-16.9V52.7h-0.1l0.1-0.2h-0.1v-0.1
				L66.6,52.5z"/>
			<path class="st4" d="M101.3,147.5h30V34h-30V147.5z M105.6,37.5h21.8v10.9h-21.8L105.6,37.5z M105.6,56.2h21.8v71.3h-21.8
				L105.6,56.2z"/>
			<path class="st4" d="M166.1,147.5l0.1-44.4h29.6V69.2l-12.9-16.8h-10.1l-6.6,4.3v-4.2h-30l-0.1,95.1L166.1,147.5z M169.9,83.4v-9
				H162v53.1h-21.8V55.9h22V64l12.7-8.1h5.6l11.2,14.6v12.8H169.9z"/>
			<path class="st4" d="M204.6,37.5h21.7v89.9h-21.7V37.5z M230.3,34h-30v113.5h30V34z"/>
			<path class="st4" d="M281.7,147.5l13-16.9V52.4h-46.8L235,69.3v78.2H281.7z M239.1,100.7V70.3l11.1-14.4h40.4v17.9h-29.7v8.6
				h29.7v26.7l-14.1,18.3h-37.4v-18.2H269v-8.6H239.1z"/>
			<g>
				<path class="st5" d="M37,280.7v-78.2l12.5-16.9h45.2v78.2l-12.5,16.9H37z M69.9,233.9v8.6H41v18.1h36.1l13.7-18.3v-26.7H62.1
					V207h28.7v-17.9H51.8L41,203.5v30.3H69.9z"/>
				<path class="st5" d="M156.9,185l-0.1,76.1v19.6h-29.1v-4.3l-6.4,4.3h-9.8l-12.5-16.8V185H156.9z M103.1,188.6v53.7l13.7,18.3
					h2.6l12.3-8.1v8.1h21.3v-72h-21.1v54.2h-7.6v-54.2H103.1z"/>
				<path class="st5" d="M190.4,280.2v16.1h-29.1V185.6h29.1v4.3l6.4-4.3h9.8l12.5,16.9v61.6l-12.2,16.3H190.4z M201.6,260.7
					l13.6-18.2v-38.4l-10.9-14.5h-5.5l-12.9,8.5v-8.5h-20.6v87h21v-16L201.6,260.7z M186.6,208h7.6v34.6h-7.6V208z"/>
				<path class="st5" d="M252.7,280.2v16.1h-29.1V185.6h29.1v4.3l6.4-4.3h9.8l12.5,16.9v61.5l-12.2,16.3H252.7z M263.8,260.7
					l13.6-18.2v-38.4l-10.9-14.5h-5.5l-12.9,8.5v-8.5h-20.6v87h21v-16L263.8,260.7z M248.8,208h7.6v34.6h-7.6V208z"/>
				<path class="st5" d="M285.8,280.7v-78.8l12.5-16.9h45.2v78.8L331,280.7H285.8z M339.6,188.6h-39.1L289.8,203v57.6h36.1
					l13.7-18.3L339.6,188.6z M311,208h7.6v34.6H311V208z"/>
				<path class="st5" d="M348,280.7l0.1-95.1h29.1v4.3l6.4-4.3h9.8l12.5,16.8v33.9l-28.6-0.1l-0.1,44.4H348z M401.8,216.6v-12.8
					L391,189.1h-5.5l-12.3,8.1v-8.1H352v71.5h21.1v-53.1h7.6v9.1L401.8,216.6z"/>
				<path class="st5" d="M422.7,280.7l-12.5-16.9v-85.5h29.1v7.4h28.7v94.9H422.7z M463.9,208.1v-18.8h-28.8v-7.5h-21.1v60.5
					l13.6,18.3h36.2v-44.4H443v26.6h-7.8v-34.6H463.9z"/>
			</g>
			<g>
				<path class="st3" d="M37,280.7v-78.2l12.5-16.9h45.2v78.2l-12.5,16.9H37z M69.9,233.9v8.6H41v18.1h36.1l13.7-18.3v-26.7H62.1
					V207h28.7v-17.9H51.8L41,203.5v30.3H69.9z"/>
				<path class="st3" d="M156.9,185l-0.1,76.1v19.6h-29.1v-4.3l-6.4,4.3h-9.8l-12.5-16.8V185H156.9z M103.1,188.6v53.7l13.7,18.3
					h2.6l12.3-8.1v8.1h21.3v-72h-21.1v54.2h-7.6v-54.2H103.1z"/>
				<path class="st3" d="M190.4,280.2v16.1h-29.1V185.6h29.1v4.3l6.4-4.3h9.8l12.5,16.9v61.6l-12.2,16.3H190.4z M201.6,260.7
					l13.6-18.2v-38.4l-10.9-14.5h-5.5l-12.9,8.5v-8.5h-20.6v87h21v-16L201.6,260.7z M186.6,208h7.6v34.6h-7.6V208z"/>
				<path class="st3" d="M252.7,280.2v16.1h-29.1V185.6h29.1v4.3l6.4-4.3h9.8l12.5,16.9v61.5l-12.2,16.3H252.7z M263.8,260.7
					l13.6-18.2v-38.4l-10.9-14.5h-5.5l-12.9,8.5v-8.5h-20.6v87h21v-16L263.8,260.7z M248.8,208h7.6v34.6h-7.6V208z"/>
				<path class="st3" d="M285.8,280.7v-78.8l12.5-16.9h45.2v78.8L331,280.7H285.8z M339.6,188.6h-39.1L289.8,203v57.6h36.1
					l13.7-18.3L339.6,188.6z M311,208h7.6v34.6H311V208z"/>
				<path class="st3" d="M348,280.7l0.1-95.1h29.1v4.3l6.4-4.3h9.8l12.5,16.8v33.9l-28.6-0.1l-0.1,44.4H348z M401.8,216.6v-12.8
					L391,189.1h-5.5l-12.3,8.1v-8.1H352v71.5h21.1v-53.1h7.6v9.1L401.8,216.6z"/>
				<path class="st3" d="M422.7,280.7l-12.5-16.9v-85.5h29.1v7.4h28.7v94.9H422.7z M463.9,208.1v-18.8h-28.8v-7.5h-21.1v60.5
					l13.6,18.3h36.2v-44.4H443v26.6h-7.8v-34.6H463.9z"/>
			</g>
			<path class="st6" d="M82.3,280.7l12.6-16.9v-78.2H49.6L37,202.4v78.2H82.3z M41,233.9v-30.3l10.8-14.4H91V207H62.2v8.6H91v26.7
				l-13.7,18.3H41v-18.1h29v-8.6H41z"/>
			<path class="st6" d="M124.5,188.6v54.2h7.7v-54.2h21.1v72.1h-21.3v-8.1l-12.3,8.1H117l-13.7-18.3v-53.8H124.5z M99.4,185v78.8
				l12.5,16.8h9.8l6.4-4.3v4.3h29.2v-19.6l0.1-76.1L99.4,185z"/>
			<path class="st6" d="M187.1,242.6h7.7V208h-7.7V242.6z M207.5,280.2l12.2-16.3v-61.5l-12.6-16.9h-9.8l-6.4,4.3v-4.3h-29.1v110.8
				H191v-16.1H207.5z M186.8,260.7v16h-21v-87h20.7v8.5l12.9-8.5h5.5l10.9,14.5v38.4l-13.6,18.2L186.8,260.7z"/>
			<path class="st6" d="M249.5,242.6h7.7V208h-7.7V242.6z M269.9,280.2l12.2-16.3v-61.5l-12.5-16.9h-9.8l-6.4,4.3v-4.3h-29.1v110.8
				h29.1v-16.1H269.9z M249.2,260.7v16h-21v-87h20.7v8.5l12.9-8.5h5.5l10.9,14.5v38.4l-13.6,18.2L249.2,260.7z"/>
			<path class="st6" d="M311.9,242.6h7.7V208h-7.7V242.6z M331.9,280.7l12.6-16.9V185h-45.3l-12.6,16.9v78.8H331.9z M340.6,242.3
				l-13.7,18.3h-36.2V203l10.8-14.4h39.2V242.3z"/>
			<path class="st6" d="M378.1,280.7l0-44.4l28.7,0.1v-33.9l-12.5-16.8h-9.8l-6.4,4.3v-4.3H349l-0.1,95.1H378.1z M381.8,216.6v-9
				h-7.7v53.1H353v-71.6h21.3v8.1l12.3-8.1h5.5l10.8,14.6v12.8L381.8,216.6z"/>
			<g>
				<path class="st2" d="M230.1,303.6 M200,303.6"/>
			</g>
			<g>
				<path class="st3" d="M230.1,303.6 M200,303.6"/>
			</g>
			<path class="st4" d="M229.5,303.5"/>
		</g>
	</g>
	<g class="st1">
		<path class="st2" d="M96.9,324.3L96.9,324.3l0.1,0.1v0.2l0,0v91.7l-13,16.9H37.1v-92.1l13-16.9h10.1l6.6,4.3v-4.2H96.9z M57.6,328
			H52l-10.8,14.5v34.3l8.3,10.9H71l-0.1,7H41.1v18.5h37.6L92.8,395v-67.1h-22v8.5L57.6,328z M63.3,372.7v-26.1h7.8v26.1H63.3z"/>
		<path class="st2" d="M101.6,305.9h30.2v113.5h-30.2V305.9z M127.7,320.3v-10.9h-21.9v10.9H127.7z M105.9,399.3h21.9v-71.2h-21.9
			V399.3z"/>
		<path class="st2" d="M136.4,419.4l0.1-95.1h30.1v4.3l6.6-4.3h10.2l12.9,16.8v34l-29.7-0.1l-0.1,44.4L136.4,419.4z M192.2,355.3
			v-12.8L181,327.8h-5.6l-12.8,8.1v-8.1h-22.1v71.5h21.9v-53.1h7.9v9L192.2,355.3z"/>
		<path class="st2" d="M231.1,419.4H201V305.9h30.1V419.4z M227.1,399.4v-90h-21.8v89.9L227.1,399.4z"/>
		<path class="st2" d="M235.7,419.4v-78.2l13-16.9h46.9v78.2l-13,16.9H235.7z M269.9,372.6v8.6h-30v18.2h37.5l14.1-18.3v-26.7h-29.8
			v-8.6h29.8v-17.9H251l-11.1,14.4v30.3H269.9z"/>
	</g>
	<g class="st1">
		<path class="st3" d="M96.9,324.3L96.9,324.3l0.1,0.1v0.2l0,0v91.7l-13,16.9H37.1v-92.1l13-16.9h10.1l6.6,4.3v-4.2H96.9z M57.6,328
			H52l-10.8,14.5v34.3l8.3,10.9H71l-0.1,7H41.1v18.5h37.6L92.8,395v-67.1h-22v8.5L57.6,328z M63.3,372.7v-26.1h7.8v26.1H63.3z"/>
		<path class="st3" d="M101.6,305.9h30.2v113.5h-30.2V305.9z M127.7,320.3v-10.9h-21.9v10.9H127.7z M105.9,399.3h21.9v-71.2h-21.9
			V399.3z"/>
		<path class="st3" d="M136.4,419.4l0.1-95.1h30.1v4.3l6.6-4.3h10.2l12.9,16.8v34l-29.7-0.1l-0.1,44.4L136.4,419.4z M192.2,355.3
			v-12.8L181,327.8h-5.6l-12.8,8.1v-8.1h-22.1v71.5h21.9v-53.1h7.9v9L192.2,355.3z"/>
		<path class="st3" d="M231.1,419.4H201V305.9h30.1V419.4z M227.1,399.4v-90h-21.8v89.9L227.1,399.4z"/>
		<path class="st3" d="M235.7,419.4v-78.2l13-16.9h46.9v78.2l-13,16.9H235.7z M269.9,372.6v8.6h-30v18.2h37.5l14.1-18.3v-26.7h-29.8
			v-8.6h29.8v-17.9H251l-11.1,14.4v30.3H269.9z"/>
	</g>
	<path class="st7" d="M71,346.6h-7.8v26.1H71L71,346.6z M70.7,336.3v-8.5h21.9V395l-14.1,18.2H41.1v-18.4h29.8l0.1-7H49.4l-8.2-10.9
		v-34.3L51.9,328h5.7L70.7,336.3z M66.7,324.3v4.3l-6.6-4.3H50l-12.9,16.8v92.1h46.7l13-16.9v-91.7h-0.1l0.1-0.2h-0.1v-0.1
		L66.7,324.3z"/>
	<path class="st7" d="M101.4,419.4h30V305.9h-30V419.4z M105.6,309.4h21.8v10.9h-21.8L105.6,309.4z M105.6,328h21.8v71.3h-21.8
		L105.6,328z"/>
	<path class="st7" d="M166.1,419.4l0.1-44.4h29.6v-33.9l-12.9-16.8h-10.1l-6.6,4.3v-4.2h-30l-0.1,95.1H166.1z M169.9,355.3v-9H162
		v53.1h-21.8v-71.6h22v8.1l12.7-8.1h5.6l11.2,14.6v12.8H169.9z"/>
	<path class="st7" d="M204.7,309.4h21.7v89.9h-21.7V309.4z M230.4,305.9h-30v113.5h30V305.9z"/>
	<path class="st7" d="M281.8,419.4l13-16.9v-78.2H248L235,341.1v78.2H281.8z M239.2,372.6v-30.4l11.1-14.4h40.4v17.9H261v8.6h29.7
		v26.7l-14.1,18.3h-37.4v-18.2h29.9v-8.6H239.2z"/>
</g>
<g id="Layer_2">
	<g id="Artboard_2_1_">
		<g id="logo_3_1_">
			<g>
				<path class="st8" d="M97.2,45.9L97.2,45.9l0.1,0v0.2l0,0v91.7l-13,16.8H37.4V62.6l13-16.8h10.1l6.6,4.3v-4.2H97.2z M58,49.5
					h-5.7L41.5,64v34.3l8.3,10.9h21.5l-0.1,7H41.4v18.5H79l14.1-18.2V49.4h-22v8.5L58,49.5z M63.6,94.3V68.2h7.8v26.1H63.6z"/>
				<path class="st8" d="M101.9,27.4h30.2v113.5h-30.2V27.4z M128,41.8V31h-21.9v10.9H128z M106.2,120.8H128V49.6h-21.9V120.8z"/>
				<path class="st8" d="M136.7,140.9l0.1-95.1h30.1v4.3l6.6-4.3h10.2l12.9,16.8v34L167,96.5l-0.1,44.4L136.7,140.9z M192.6,76.8V64
					l-11.2-14.6h-5.6L163,57.4v-8.1h-22.1v71.5h21.9V67.8h7.9v9L192.6,76.8z"/>
				<path class="st8" d="M231.4,140.9h-30.1V27.4h30.1V140.9z M227.4,120.9V31h-21.8v89.9L227.4,120.9z"/>
				<path class="st8" d="M236,140.9V62.7l13-16.8h46.9v78.2l-13,16.8H236z M270.2,94.1v8.6h-30v18.2h37.5l14.1-18.3V75.9h-29.8v-8.6
					h29.8V49.4h-40.5l-11.1,14.4v30.3L270.2,94.1z"/>
			</g>
			<g>
				<path class="st9" d="M97.2,45.9L97.2,45.9l0.1,0v0.2l0,0v91.7l-13,16.8H37.4V62.6l13-16.8h10.1l6.6,4.3v-4.2H97.2z M58,49.5
					h-5.7L41.5,64v34.3l8.3,10.9h21.5l-0.1,7H41.4v18.5H79l14.1-18.2V49.4h-22v8.5L58,49.5z M63.6,94.3V68.2h7.8v26.1H63.6z"/>
				<path class="st9" d="M101.9,27.4h30.2v113.5h-30.2V27.4z M128,41.8V31h-21.9v10.9H128z M106.2,120.8H128V49.6h-21.9V120.8z"/>
				<path class="st9" d="M136.7,140.9l0.1-95.1h30.1v4.3l6.6-4.3h10.2l12.9,16.8v34L167,96.5l-0.1,44.4L136.7,140.9z M192.6,76.8V64
					l-11.2-14.6h-5.6L163,57.4v-8.1h-22.1v71.5h21.9V67.8h7.9v9L192.6,76.8z"/>
				<path class="st9" d="M231.4,140.9h-30.1V27.4h30.1V140.9z M227.4,120.9V31h-21.8v89.9L227.4,120.9z"/>
				<path class="st9" d="M236,140.9V62.7l13-16.8h46.9v78.2l-13,16.8H236z M270.2,94.1v8.6h-30v18.2h37.5l14.1-18.3V75.9h-29.8v-8.6
					h29.8V49.4h-40.5l-11.1,14.4v30.3L270.2,94.1z"/>
			</g>
			<path class="st9" d="M71.3,68.2h-7.8v26.1h7.8L71.3,68.2z M71,57.9v-8.5h21.9v67.1l-14.1,18.2H41.4v-18.4h29.8l0.1-7.1H49.7
				l-8.2-10.9V64l10.7-14.5h5.7L71,57.9z M67,45.9v4.3l-6.6-4.3H50.3L37.4,62.6v92.1h46.7l13-16.9V46.1H97l0.1-0.2H97v-0.1L67,45.9z
				"/>
			<path class="st9" d="M101.7,140.9h30V27.4h-30V140.9z M105.9,30.9h21.8v10.9h-21.8L105.9,30.9z M105.9,49.6h21.8v71.3h-21.8
				L105.9,49.6z"/>
			<path class="st9" d="M166.5,140.9l0.1-44.4h29.6V62.6l-12.9-16.8h-10.1l-6.6,4.3v-4.2h-30l-0.1,95.1H166.5z M170.3,76.8v-9h-7.9
				v53.1h-21.8V49.4h22v8.1l12.7-8.1h5.6L192.1,64v12.8L170.3,76.8z"/>
			<path class="st9" d="M205,30.9h21.7v89.9H205V30.9z M230.7,27.4h-30v113.5h30V27.4z"/>
			<path class="st9" d="M282.1,140.9l13-16.8V45.8h-46.8l-12.9,16.9v78.2H282.1z M239.5,94.1V63.8l11.1-14.4H291v17.9h-29.7v8.6H291
				v26.7l-14.1,18.3h-37.4v-18.2h29.9v-8.6H239.5z"/>
			<g>
				<path class="st8" d="M37.4,274.1v-78.2L49.9,179h45.2v78.2l-12.5,16.8H37.4z M70.3,227.3v8.6H41.4V254h36.1l13.7-18.3V209H62.5
					v-8.6h28.7v-17.9H52.2l-10.7,14.4v30.3H70.3z"/>
				<path class="st8" d="M157.3,178.5l-0.1,76.1v19.6h-29.1v-4.3l-6.4,4.3h-9.8l-12.5-16.8v-78.8H157.3z M103.5,182v53.7l13.7,18.3
					h2.6L132,246v8.1h21.2V182h-21.1v54.2h-7.6V182H103.5z"/>
				<path class="st8" d="M190.8,273.7v16.1h-29.1V179h29.1v4.3l6.4-4.3h9.8l12.5,16.9v61.6l-12.2,16.3H190.8z M202,254.1l13.6-18.2
					v-38.4l-10.9-14.5h-5.5l-12.9,8.4v-8.4h-20.6v87h21v-16L202,254.1z M187,201.4h7.6V236H187V201.4z"/>
				<path class="st8" d="M253,273.7v16.1H224V179H253v4.3l6.4-4.3h9.8l12.5,16.8v61.5l-12.2,16.3H253z M264.2,254.1l13.6-18.2v-38.4
					l-10.9-14.5h-5.5l-12.9,8.4v-8.4H228v87h21v-16L264.2,254.1z M249.2,201.4h7.6V236h-7.6V201.4z"/>
				<path class="st8" d="M286.2,274.1v-78.8l12.5-16.9h45.2v78.8l-12.5,16.8H286.2z M340,182h-39.1l-10.7,14.4V254h36.1l13.7-18.3
					L340,182z M311.4,201.4h7.6V236h-7.6V201.4z"/>
				<path class="st8" d="M348.4,274.1l0.1-95.1h29.1v4.3l6.4-4.3h9.8l12.5,16.8v33.9l-28.6-0.1l-0.1,44.4H348.4z M402.2,210v-12.8
					l-10.8-14.6h-5.5l-12.3,8.1v-8.1h-21.2V254h21.1V201h7.6v9.1L402.2,210z"/>
				<path class="st8" d="M423.1,274.1l-12.5-16.8v-85.5h29.1v7.4h28.7v94.9H423.1z M464.3,201.5v-18.8h-28.8v-7.5h-21.1v60.5
					l13.6,18.3h36.2v-44.4h-20.9v26.6h-7.8v-34.6L464.3,201.5z"/>
			</g>
			<g>
				<path class="st9" d="M37.4,274.1v-78.2L49.9,179h45.2v78.2l-12.5,16.8H37.4z M70.3,227.3v8.6H41.4V254h36.1l13.7-18.3V209H62.5
					v-8.6h28.7v-17.9H52.2l-10.7,14.4v30.3H70.3z"/>
				<path class="st9" d="M157.3,178.5l-0.1,76.1v19.6h-29.1v-4.3l-6.4,4.3h-9.8l-12.5-16.8v-78.8H157.3z M103.5,182v53.7l13.7,18.3
					h2.6L132,246v8.1h21.2V182h-21.1v54.2h-7.6V182H103.5z"/>
				<path class="st9" d="M190.8,273.7v16.1h-29.1V179h29.1v4.3l6.4-4.3h9.8l12.5,16.9v61.6l-12.2,16.3H190.8z M202,254.1l13.6-18.2
					v-38.4l-10.9-14.5h-5.5l-12.9,8.4v-8.4h-20.6v87h21v-16L202,254.1z M187,201.4h7.6V236H187V201.4z"/>
				<path class="st9" d="M253,273.7v16.1H224V179H253v4.3l6.4-4.3h9.8l12.5,16.8v61.5l-12.2,16.3H253z M264.2,254.1l13.6-18.2v-38.4
					l-10.9-14.5h-5.5l-12.9,8.4v-8.4H228v87h21v-16L264.2,254.1z M249.2,201.4h7.6V236h-7.6V201.4z"/>
				<path class="st9" d="M286.2,274.1v-78.8l12.5-16.9h45.2v78.8l-12.5,16.8H286.2z M340,182h-39.1l-10.7,14.4V254h36.1l13.7-18.3
					L340,182z M311.4,201.4h7.6V236h-7.6V201.4z"/>
				<path class="st9" d="M348.4,274.1l0.1-95.1h29.1v4.3l6.4-4.3h9.8l12.5,16.8v33.9l-28.6-0.1l-0.1,44.4H348.4z M402.2,210v-12.8
					l-10.8-14.6h-5.5l-12.3,8.1v-8.1h-21.2V254h21.1V201h7.6v9.1L402.2,210z"/>
				<path class="st9" d="M423.1,274.1l-12.5-16.8v-85.5h29.1v7.4h28.7v94.9H423.1z M464.3,201.5v-18.8h-28.8v-7.5h-21.1v60.5
					l13.6,18.3h36.2v-44.4h-20.9v26.6h-7.8v-34.6L464.3,201.5z"/>
			</g>
			<path class="st9" d="M82.7,274.1l12.6-16.8V179H49.9l-12.5,16.9v78.2H82.7z M41.4,227.3v-30.3l10.8-14.4h39.2v17.9H62.6v8.6h28.8
				v26.7L77.7,254H41.4v-18.2h29v-8.6H41.4z"/>
			<path class="st9" d="M124.8,182v54.2h7.7V182h21.1V254h-21.3V246L120,254h-2.6l-13.7-18.3V182H124.8z M99.8,178.5v78.8l12.5,16.8
				h9.8l6.4-4.3v4.3h29.2v-19.6l0.1-76.1L99.8,178.5z"/>
			<path class="st9" d="M187.5,236h7.7v-34.6h-7.7V236z M207.9,273.7l12.2-16.3v-61.5l-12.6-16.9h-9.8l-6.4,4.3V179h-29.1v110.8
				h29.2v-16.1H207.9z M187.2,254.1v16h-21v-87h20.7v8.4l12.9-8.4h5.5l10.9,14.5V236l-13.6,18.2L187.2,254.1z"/>
			<path class="st9" d="M249.9,236h7.7v-34.6h-7.7V236z M270.3,273.7l12.2-16.3v-61.5l-12.5-16.9h-9.8l-6.4,4.3V179h-29.1v110.8
				h29.1v-16.1H270.3z M249.6,254.1v16h-21v-87h20.7v8.4l12.9-8.4h5.5l10.9,14.5V236L265,254.2L249.6,254.1z"/>
			<path class="st9" d="M312.3,236h7.7v-34.6h-7.7V236z M332.3,274.1l12.6-16.8v-78.8h-45.3L287,195.3v78.8H332.3z M341,235.7
				L327.3,254H291v-57.6l10.8-14.4H341V235.7z"/>
			<path class="st9" d="M378.5,274.1l0-44.4l28.7,0.1v-33.9L394.8,179H385l-6.4,4.3V179h-29.1l-0.1,95.1H378.5z M382.2,210v-9h-7.7
				v53.1h-21.1v-71.6h21.3v8.1l12.3-8.1h5.5l10.8,14.6V210L382.2,210z"/>
			<g>
				<path class="st8" d="M230.5,297 M200.4,297"/>
			</g>
			<g>
				<path class="st9" d="M230.5,297 M200.4,297"/>
			</g>
			<path class="st9" d="M229.9,297"/>
		</g>
	</g>
	<g>
		<path class="st8" d="M97.3,317.7L97.3,317.7l0.1,0.1v0.2l0,0v91.7l-13,16.9H37.5v-92.1l13-16.8h10.1l6.6,4.3v-4.2H97.3z M58,321.4
			h-5.7l-10.8,14.5v34.3l8.3,10.9h21.5l-0.1,7H41.5v18.5h37.6l14.1-18.2v-67.1h-22v8.5L58,321.4z M63.7,366.2v-26.1h7.8v26.1H63.7z"
			/>
		<path class="st8" d="M102,299.3h30.2v113.5H102V299.3z M128.1,313.7v-10.9h-21.9v10.9H128.1z M106.3,392.7h21.9v-71.2h-21.9V392.7
			z"/>
		<path class="st8" d="M136.8,412.8l0.1-95.1H167v4.3l6.6-4.3h10.2l12.9,16.8v34l-29.7-0.1l-0.1,44.4L136.8,412.8z M192.6,348.7
			v-12.8l-11.2-14.6h-5.6l-12.8,8.1v-8.1H141v71.5h21.9v-53.1h7.9v9.1H192.6z"/>
		<path class="st8" d="M231.5,412.8h-30.1V299.3h30.1V412.8z M227.5,392.8v-90h-21.8v89.9L227.5,392.8z"/>
		<path class="st8" d="M236.1,412.8v-78.2l13-16.9H296V396l-13,16.9H236.1z M270.3,366v8.6h-30v18.2h37.5l14.1-18.3v-26.7h-29.8
			v-8.6H292v-17.9h-40.5l-11.1,14.4V366H270.3z"/>
	</g>
	<g>
		<path class="st9" d="M97.3,317.7L97.3,317.7l0.1,0.1v0.2l0,0v91.7l-13,16.9H37.5v-92.1l13-16.8h10.1l6.6,4.3v-4.2H97.3z M58,321.4
			h-5.7l-10.8,14.5v34.3l8.3,10.9h21.5l-0.1,7H41.5v18.5h37.6l14.1-18.2v-67.1h-22v8.5L58,321.4z M63.7,366.2v-26.1h7.8v26.1H63.7z"
			/>
		<path class="st9" d="M102,299.3h30.2v113.5H102V299.3z M128.1,313.7v-10.9h-21.9v10.9H128.1z M106.3,392.7h21.9v-71.2h-21.9V392.7
			z"/>
		<path class="st9" d="M136.8,412.8l0.1-95.1H167v4.3l6.6-4.3h10.2l12.9,16.8v34l-29.7-0.1l-0.1,44.4L136.8,412.8z M192.6,348.7
			v-12.8l-11.2-14.6h-5.6l-12.8,8.1v-8.1H141v71.5h21.9v-53.1h7.9v9.1H192.6z"/>
		<path class="st9" d="M231.5,412.8h-30.1V299.3h30.1V412.8z M227.5,392.8v-90h-21.8v89.9L227.5,392.8z"/>
		<path class="st9" d="M236.1,412.8v-78.2l13-16.9H296V396l-13,16.9H236.1z M270.3,366v8.6h-30v18.2h37.5l14.1-18.3v-26.7h-29.8
			v-8.6H292v-17.9h-40.5l-11.1,14.4V366H270.3z"/>
	</g>
	<path class="st9" d="M71.4,340h-7.8v26.1h7.8L71.4,340z M71.1,329.8v-8.5H93v67.1l-14.1,18.2H41.5v-18.4h29.8l0.1-7.1H49.8
		l-8.2-10.9v-34.4l10.8-14.5H58L71.1,329.8z M67.1,317.8v4.3l-6.6-4.3H50.4l-12.9,16.8v92.1h46.7l13-16.9V318h-0.1l0.1-0.2H97v-0.1
		L67.1,317.8z"/>
	<path class="st9" d="M101.8,412.8h30V299.3h-30V412.8z M106,302.8h21.8v10.9H106L106,302.8z M106,321.5h21.8v71.3H106L106,321.5z"
		/>
	<path class="st9" d="M166.5,412.8l0.1-44.4h29.6v-33.9l-12.9-16.8h-10.1l-6.6,4.3v-4.2h-30l-0.1,95.1H166.5z M170.3,348.7v-9h-7.9
		v53.1h-21.8v-71.6h22v8.1l12.7-8.1h5.6l11.2,14.6v12.8H170.3z"/>
	<path class="st9" d="M205.1,302.8h21.7v89.9h-21.7V302.8z M230.8,299.3h-30v113.5h30V299.3z"/>
	<path class="st9" d="M282.2,412.8l13-16.9v-78.2h-46.8l-12.9,16.9v78.2H282.2z M239.6,366v-30.4l11.1-14.4h40.4v17.9h-29.7v8.6
		h29.7v26.7l-14.1,18.3h-37.4v-18.2h29.9V366H239.6z"/>
</g>
</svg>
