<?xml version="1.0" encoding="utf-8"?>
<!-- Generator: Adobe Illustrator 24.0.0, SVG Export Plug-In . SVG Version: 6.00 Build 0)  -->
<svg version="1.1" id="Layer_1" xmlns="http://www.w3.org/2000/svg" xmlns:xlink="http://www.w3.org/1999/xlink" x="0px" y="0px"
	 viewBox="0 0 536 531.5" style="enable-background:new 0 0 536 531.5;" xml:space="preserve">
<style type="text/css">
	.st0{fill:#FFFFFF;stroke:#FFFFFF;stroke-miterlimit:10;}
	.st1{fill:#ED6A5A;}
	.st2{fill:none;stroke:#3E3E3E;stroke-width:2;stroke-miterlimit:10;}
	.st3{fill:#ED6A5A;stroke:#3E3E3E;stroke-width:2;stroke-miterlimit:10;}
	.st4{fill:#9BC1BC;}
	.st5{fill:#9BC1BC;stroke:#3E3E3E;stroke-width:2;stroke-miterlimit:10;}
	.st6{display:none;}
	.st7{display:inline;}
	.st8{fill:#ACA6A5;}
	.st9{fill:#ACA6A5;stroke:#3E3E3E;stroke-width:2;stroke-miterlimit:10;}
	.st10{display:inline;fill:#ACA6A5;stroke:#3E3E3E;stroke-width:2;stroke-miterlimit:10;}
</style>
<g id="Layer_2_1_">
	<circle class="st0" cx="267.5" cy="267" r="264.5"/>
</g>
<g id="Layer_1_2_">
	<g id="Layer_1_1_">
		<title>gsg-mini-logo</title>
		<g id="Artboard_2">
			<g id="logo_3">
				<g>
					<path class="st1" d="M136.8,72.4L136.8,72.4L136.8,72.4l0.1,0.2l0,0v91.7l-13,16.8H77V89.2l13-16.8h10.1l6.6,4.3v-4.2
						L136.8,72.4L136.8,72.4z M97.6,76.1h-5.7L81.1,90.6v34.3l8.3,10.9h21.5l-0.1,7H81v18.5h37.6l14.1-18.2V76h-22v8.5L97.6,76.1z
						 M103.2,120.9V94.8h7.8v26.1H103.2z"/>
					<path class="st1" d="M141.5,54h30.2v113.5h-30.2V54z M167.7,68.4V57.5h-21.9v10.9H167.7z M145.8,147.4h21.9V76.2h-21.9V147.4z"
						/>
					<path class="st1" d="M176.3,167.5l0.1-95.1h30.1v4.3l6.6-4.3h10.2l12.9,16.8v34l-29.7-0.1l-0.1,44.4H176.3z M232.2,103.4V90.6
						L221,76h-5.6l-12.8,8v-8h-22.1v71.5h21.9V94.4h7.9v9.1L232.2,103.4z"/>
					<path class="st1" d="M271,167.5h-30.1V54H271V167.5z M267,147.5v-90h-21.8v89.9L267,147.5z"/>
					<path class="st1" d="M275.6,167.5V89.3l13-16.8h46.9v78.2l-13,16.9L275.6,167.5L275.6,167.5z M309.8,120.7v8.6h-30v18.2h37.5
						l14.1-18.3v-26.8h-29.8v-8.6h29.8V76h-40.5l-11.1,14.4v30.3H309.8z"/>
				</g>
				<g>
					<path class="st2" d="M136.8,72.4L136.8,72.4L136.8,72.4l0.1,0.2l0,0v91.7l-13,16.8H77V89.2l13-16.8h10.1l6.6,4.3v-4.2
						L136.8,72.4L136.8,72.4z M97.6,76.1h-5.7L81.1,90.6v34.3l8.3,10.9h21.5l-0.1,7H81v18.5h37.6l14.1-18.2V76h-22v8.5L97.6,76.1z
						 M103.2,120.9V94.8h7.8v26.1H103.2z"/>
					<path class="st2" d="M141.5,54h30.2v113.5h-30.2V54z M167.7,68.4V57.5h-21.9v10.9H167.7z M145.8,147.4h21.9V76.2h-21.9V147.4z"
						/>
					<path class="st2" d="M176.3,167.5l0.1-95.1h30.1v4.3l6.6-4.3h10.2l12.9,16.8v34l-29.7-0.1l-0.1,44.4H176.3z M232.2,103.4V90.6
						L221,76h-5.6l-12.8,8v-8h-22.1v71.5h21.9V94.4h7.9v9.1L232.2,103.4z"/>
					<path class="st2" d="M271,167.5h-30.1V54H271V167.5z M267,147.5v-90h-21.8v89.9L267,147.5z"/>
					<path class="st2" d="M275.6,167.5V89.3l13-16.8h46.9v78.2l-13,16.9L275.6,167.5L275.6,167.5z M309.8,120.7v8.6h-30v18.2h37.5
						l14.1-18.3v-26.8h-29.8v-8.6h29.8V76h-40.5l-11.1,14.4v30.3H309.8z"/>
				</g>
				<path class="st3" d="M110.9,94.7h-7.8v26.1h7.8V94.7z M110.6,84.4v-8.5h21.9V143l-14.1,18.2H81v-18.4h29.8l0.1-7.1H89.3
					l-8.2-10.9V90.6l10.7-14.5h5.7L110.6,84.4z M106.6,72.5v4.3l-6.6-4.4H89.9L77,89.2v92.1h46.7l13-16.9V72.7h-0.1l0.1-0.2h-0.1
					v-0.1L106.6,72.5z"/>
				<path class="st3" d="M141.3,167.5h30V54h-30V167.5z M145.6,57.5h21.8v10.9h-21.8V57.5z M145.6,76.2h21.8v71.3h-21.8V76.2z"/>
				<path class="st3" d="M206.1,167.5l0.1-44.4h29.6V89.2l-12.9-16.8h-10.1l-6.6,4.3v-4.2h-30l-0.1,95.1L206.1,167.5z M209.9,103.4
					v-9H202v53.1h-21.8V75.9h22V84l12.7-8.1h5.6l11.2,14.6v12.8L209.9,103.4L209.9,103.4z"/>
				<path class="st3" d="M244.6,57.5h21.7v89.9h-21.7L244.6,57.5L244.6,57.5z M270.3,54h-30v113.5h30V54z"/>
				<path class="st3" d="M321.7,167.5l13-16.9V72.4h-46.8L275,89.3v78.2H321.7z M279.1,120.7V90.3l11.1-14.4h40.4v17.9h-29.7v8.6
					h29.7v26.7l-14.1,18.3h-37.4v-18.2H309v-8.6L279.1,120.7L279.1,120.7z"/>
				<g>
					<path class="st4" d="M77,300.7v-78.2l12.5-16.9h45.2v78.2l-12.5,16.9H77z M109.9,253.9v8.6H81v18.1h36.1l13.7-18.3v-26.7h-28.7
						V227h28.7v-17.9h-39L81,223.5v30.3L109.9,253.9L109.9,253.9z"/>
					<path class="st4" d="M196.9,205l-0.1,76.1v19.6h-29.1v-4.3l-6.4,4.3h-9.8L139,283.9V205H196.9z M143.1,208.6v53.7l13.7,18.3
						h2.6l12.3-8.1v8.1H193v-72h-21.1v54.2h-7.6v-54.2L143.1,208.6L143.1,208.6z"/>
					<path class="st4" d="M230.4,300.2v16.1h-29.1V205.6h29.1v4.3l6.4-4.3h9.8l12.5,16.9v61.6l-12.2,16.3h-16.5L230.4,300.2
						L230.4,300.2z M241.6,280.7l13.6-18.2v-38.4l-10.9-14.5h-5.5l-12.9,8.5v-8.5h-20.6v87h21v-16L241.6,280.7z M226.6,228h7.6v34.6
						h-7.6V228z"/>
					<path class="st4" d="M292.7,300.2v16.1h-29.1V205.6h29.1v4.3l6.4-4.3h9.8l12.5,16.9V284l-12.2,16.3L292.7,300.2L292.7,300.2z
						 M303.8,280.7l13.6-18.2v-38.4l-10.9-14.5H301l-12.9,8.5v-8.5h-20.6v87h21v-16L303.8,280.7z M288.8,228h7.6v34.6h-7.6V228
						L288.8,228z"/>
					<path class="st4" d="M325.8,300.7v-78.8l12.5-16.9h45.2v78.8L371,300.7H325.8z M379.6,208.6h-39.1L329.8,223v57.6h36.1
						l13.7-18.3V208.6z M351,228h7.6v34.6H351V228z"/>
					<path class="st4" d="M388,300.7l0.1-95.1h29.1v4.3l6.4-4.3h9.8l12.5,16.8v33.9l-28.6-0.1l-0.1,44.4H388V300.7z M441.8,236.6
						v-12.8L431,209.1h-5.5l-12.3,8.1v-8.1H392v71.5h21.1v-53.1h7.6v9.1H441.8z"/>
					<path class="st4" d="M462.7,300.7l-12.5-16.9v-85.5h29.1v7.4H508v94.9h-45.3V300.7z M503.9,228.1v-18.8h-28.8v-7.5H454v60.5
						l13.6,18.3h36.2v-44.4H483v26.6h-7.8v-34.6L503.9,228.1L503.9,228.1L503.9,228.1z"/>
				</g>
				<g>
					<path class="st2" d="M77,300.7v-78.2l12.5-16.9h45.2v78.2l-12.5,16.9H77z M109.9,253.9v8.6H81v18.1h36.1l13.7-18.3v-26.7h-28.7
						V227h28.7v-17.9h-39L81,223.5v30.3L109.9,253.9L109.9,253.9z"/>
					<path class="st2" d="M196.9,205l-0.1,76.1v19.6h-29.1v-4.3l-6.4,4.3h-9.8L139,283.9V205H196.9z M143.1,208.6v53.7l13.7,18.3
						h2.6l12.3-8.1v8.1H193v-72h-21.1v54.2h-7.6v-54.2L143.1,208.6L143.1,208.6z"/>
					<path class="st2" d="M230.4,300.2v16.1h-29.1V205.6h29.1v4.3l6.4-4.3h9.8l12.5,16.9v61.6l-12.2,16.3h-16.5L230.4,300.2
						L230.4,300.2z M241.6,280.7l13.6-18.2v-38.4l-10.9-14.5h-5.5l-12.9,8.5v-8.5h-20.6v87h21v-16L241.6,280.7z M226.6,228h7.6v34.6
						h-7.6V228z"/>
					<path class="st2" d="M292.7,300.2v16.1h-29.1V205.6h29.1v4.3l6.4-4.3h9.8l12.5,16.9V284l-12.2,16.3L292.7,300.2L292.7,300.2z
						 M303.8,280.7l13.6-18.2v-38.4l-10.9-14.5H301l-12.9,8.5v-8.5h-20.6v87h21v-16L303.8,280.7z M288.8,228h7.6v34.6h-7.6V228
						L288.8,228z"/>
					<path class="st2" d="M325.8,300.7v-78.8l12.5-16.9h45.2v78.8L371,300.7H325.8z M379.6,208.6h-39.1L329.8,223v57.6h36.1
						l13.7-18.3V208.6z M351,228h7.6v34.6H351V228z"/>
					<path class="st2" d="M388,300.7l0.1-95.1h29.1v4.3l6.4-4.3h9.8l12.5,16.8v33.9l-28.6-0.1l-0.1,44.4H388V300.7z M441.8,236.6
						v-12.8L431,209.1h-5.5l-12.3,8.1v-8.1H392v71.5h21.1v-53.1h7.6v9.1H441.8z"/>
					<path class="st2" d="M462.7,300.7l-12.5-16.9v-85.5h29.1v7.4H508v94.9h-45.3V300.7z M503.9,228.1v-18.8h-28.8v-7.5H454v60.5
						l13.6,18.3h36.2v-44.4H483v26.6h-7.8v-34.6L503.9,228.1L503.9,228.1L503.9,228.1z"/>
				</g>
				<path class="st5" d="M122.3,300.7l12.6-16.9v-78.2H89.6L77,222.4v78.2h45.3V300.7z M81,253.9v-30.3l10.8-14.4H131V227h-28.8v8.6
					H131v26.7l-13.7,18.3H81v-18.1h29v-8.6H81z"/>
				<path class="st5" d="M164.5,208.6v54.2h7.7v-54.2h21.1v72.1H172v-8.1l-12.3,8.1H157l-13.7-18.3v-53.8L164.5,208.6L164.5,208.6z
					 M139.4,205v78.8l12.5,16.8h9.8l6.4-4.3v4.3h29.2V281l0.1-76.1L139.4,205z"/>
				<path class="st5" d="M227.1,262.6h7.7V228h-7.7V262.6z M247.5,300.2l12.2-16.3v-61.5l-12.6-16.9h-9.8l-6.4,4.3v-4.3h-29.1v110.8
					H231v-16.1L247.5,300.2L247.5,300.2z M226.8,280.7v16h-21v-87h20.7v8.5l12.9-8.5h5.5l10.9,14.5v38.4l-13.6,18.2L226.8,280.7z"/>
				<path class="st5" d="M289.5,262.6h7.7V228h-7.7V262.6L289.5,262.6z M309.9,300.2l12.2-16.3v-61.5l-12.5-16.9h-9.8l-6.4,4.3v-4.3
					h-29.1v110.8h29.1v-16.1L309.9,300.2L309.9,300.2z M289.2,280.7v16h-21v-87h20.7v8.5l12.9-8.5h5.5l10.9,14.5v38.4l-13.6,18.2
					L289.2,280.7z"/>
				<path class="st5" d="M351.9,262.6h7.7V228h-7.7V262.6z M371.9,300.7l12.6-16.9V205h-45.3l-12.6,16.9v78.8H371.9z M380.6,262.3
					l-13.7,18.3h-36.2V223l10.8-14.4h39.2L380.6,262.3L380.6,262.3z"/>
				<path class="st5" d="M418.1,300.7v-44.4l28.7,0.1v-33.9l-12.5-16.8h-9.8l-6.4,4.3v-4.3H389l-0.1,95.1h29.2V300.7z M421.8,236.6
					v-9h-7.7v53.1H393v-71.6h21.3v8.1l12.3-8.1h5.5l10.8,14.6v12.8L421.8,236.6z"/>
				<g>
					<path class="st1" d="M240,323.6"/>
				</g>
				<g>
					<path class="st2" d="M240,323.6"/>
				</g>
				<path class="st3" d="M269.5,323.5"/>
			</g>
		</g>
		<g>
			<path class="st1" d="M136.9,344.3L136.9,344.3l0.1,0.1v0.2l0,0v91.7l-13,16.9H77.1v-92.1l13-16.9h10.1l6.6,4.3v-4.2L136.9,344.3
				L136.9,344.3z M97.6,348H92l-10.8,14.5v34.3l8.3,10.9H111l-0.1,7H81.1v18.5h37.6l14.1-18.2v-67.1h-22v8.5L97.6,348z M103.3,392.7
				v-26.1h7.8v26.1H103.3z"/>
			<path class="st1" d="M141.6,325.9h30.2v113.5h-30.2V325.9z M167.7,340.3v-10.9h-21.9v10.9H167.7z M145.9,419.3h21.9v-71.2h-21.9
				V419.3z"/>
			<path class="st1" d="M176.4,439.4l0.1-95.1h30.1v4.3l6.6-4.3h10.2l12.9,16.8v34l-29.7-0.1l-0.1,44.4L176.4,439.4z M232.2,375.3
				v-12.8L221,347.8h-5.6l-12.8,8.1v-8.1h-22.1v71.5h21.9v-53.1h7.9v9L232.2,375.3z"/>
			<path class="st1" d="M271.1,439.4H241V325.9h30.1V439.4z M267.1,419.4v-90h-21.8v89.9L267.1,419.4z"/>
			<path class="st1" d="M275.7,439.4v-78.2l13-16.9h46.9v78.2l-13,16.9H275.7z M309.9,392.6v8.6h-30v18.2h37.5l14.1-18.3v-26.7
				h-29.8v-8.6h29.8v-17.9H291l-11.1,14.4v30.3H309.9z"/>
		</g>
		<g>
			<path class="st2" d="M136.9,344.3L136.9,344.3l0.1,0.1v0.2l0,0v91.7l-13,16.9H77.1v-92.1l13-16.9h10.1l6.6,4.3v-4.2L136.9,344.3
				L136.9,344.3z M97.6,348H92l-10.8,14.5v34.3l8.3,10.9H111l-0.1,7H81.1v18.5h37.6l14.1-18.2v-67.1h-22v8.5L97.6,348z M103.3,392.7
				v-26.1h7.8v26.1H103.3z"/>
			<path class="st2" d="M141.6,325.9h30.2v113.5h-30.2V325.9z M167.7,340.3v-10.9h-21.9v10.9H167.7z M145.9,419.3h21.9v-71.2h-21.9
				V419.3z"/>
			<path class="st2" d="M176.4,439.4l0.1-95.1h30.1v4.3l6.6-4.3h10.2l12.9,16.8v34l-29.7-0.1l-0.1,44.4L176.4,439.4z M232.2,375.3
				v-12.8L221,347.8h-5.6l-12.8,8.1v-8.1h-22.1v71.5h21.9v-53.1h7.9v9L232.2,375.3z"/>
			<path class="st2" d="M271.1,439.4H241V325.9h30.1V439.4z M267.1,419.4v-90h-21.8v89.9L267.1,419.4z"/>
			<path class="st2" d="M275.7,439.4v-78.2l13-16.9h46.9v78.2l-13,16.9H275.7z M309.9,392.6v8.6h-30v18.2h37.5l14.1-18.3v-26.7
				h-29.8v-8.6h29.8v-17.9H291l-11.1,14.4v30.3H309.9z"/>
		</g>
		<path class="st3" d="M111,366.6h-7.8v26.1h7.8V366.6z M110.7,356.3v-8.5h21.9V415l-14.1,18.2H81.1v-18.4h29.8l0.1-7H89.4
			l-8.2-10.9v-34.3L91.9,348h5.7L110.7,356.3z M106.7,344.3v4.3l-6.6-4.3H90l-12.9,16.8v92.1h46.7l13-16.9v-91.7h-0.1l0.1-0.2h-0.1
			v-0.1L106.7,344.3z"/>
		<path class="st3" d="M141.4,439.4h30V325.9h-30V439.4z M145.6,329.4h21.8v10.9h-21.8V329.4z M145.6,348h21.8v71.3h-21.8V348z"/>
		<path class="st3" d="M206.1,439.4l0.1-44.4h29.6v-33.9l-12.9-16.8h-10.1l-6.6,4.3v-4.2h-30l-0.1,95.1h30V439.4z M209.9,375.3v-9
			H202v53.1h-21.8v-71.6h22v8.1l12.7-8.1h5.6l11.2,14.6v12.8h-21.8V375.3z"/>
		<path class="st3" d="M244.7,329.4h21.7v89.9h-21.7V329.4z M270.4,325.9h-30v113.5h30V325.9z"/>
		<path class="st3" d="M321.8,439.4l13-16.9v-78.2H288l-13,16.8v78.2h46.8V439.4z M279.2,392.6v-30.4l11.1-14.4h40.4v17.9H301v8.6
			h29.7V401l-14.1,18.3h-37.4v-18.2h29.9v-8.6h-29.9V392.6z"/>
	</g>
	<g id="Layer_2_2_" class="st6">
		<g id="Artboard_2_1_" class="st7">
			<g id="logo_3_1_">
				<g>
					<path class="st8" d="M95.7,48.6L95.7,48.6L95.7,48.6l0.1,0.2l0,0v91.7l-13,16.8H35.9v-92l13-16.8H59l6.6,4.3v-4.2
						C65.6,48.6,95.7,48.6,95.7,48.6z M56.5,52.2h-5.7L40,66.7V101l8.3,10.9h21.5l-0.1,7H39.9v18.5h37.6l14.1-18.2V52.1h-22v8.5
						L56.5,52.2z M62.1,97V70.9h7.8V97H62.1z"/>
					<path class="st8" d="M100.4,30.1h30.2v113.5h-30.2C100.4,143.6,100.4,30.1,100.4,30.1z M126.5,44.5V33.7h-21.9v10.9L126.5,44.5
						L126.5,44.5z M104.7,123.5h21.8V52.3h-21.9L104.7,123.5L104.7,123.5z"/>
					<path class="st8" d="M135.2,143.6l0.1-95.1h30.1v4.3l6.6-4.3h10.2l12.9,16.8v34l-29.6-0.1l-0.1,44.4H135.2z M191.1,79.5V66.7
						l-11.2-14.6h-5.6l-12.8,8V52h-22.1v71.5h21.9v-53h7.9v9H191.1z"/>
					<path class="st8" d="M229.9,143.6h-30.1V30.1h30.1V143.6z M225.9,123.6V33.7h-21.8v89.9C204.1,123.6,225.9,123.6,225.9,123.6z"
						/>
					<path class="st8" d="M234.5,143.6V65.4l13-16.8h46.9v78.2l-13,16.8H234.5z M268.7,96.8v8.6h-30v18.2h37.5l14.1-18.3V78.6h-29.8
						V70h29.8V52.1h-40.5l-11.1,14.4v30.3H268.7z"/>
				</g>
				<g>
					<path class="st9" d="M95.7,48.6L95.7,48.6L95.7,48.6l0.1,0.2l0,0v91.7l-13,16.8H35.9v-92l13-16.8H59l6.6,4.3v-4.2
						C65.6,48.6,95.7,48.6,95.7,48.6z M56.5,52.2h-5.7L40,66.7V101l8.3,10.9h21.5l-0.1,7H39.9v18.5h37.6l14.1-18.2V52.1h-22v8.5
						L56.5,52.2z M62.1,97V70.9h7.8V97H62.1z"/>
					<path class="st9" d="M100.4,30.1h30.2v113.5h-30.2C100.4,143.6,100.4,30.1,100.4,30.1z M126.5,44.5V33.7h-21.9v10.9L126.5,44.5
						L126.5,44.5z M104.7,123.5h21.8V52.3h-21.9L104.7,123.5L104.7,123.5z"/>
					<path class="st9" d="M135.2,143.6l0.1-95.1h30.1v4.3l6.6-4.3h10.2l12.9,16.8v34l-29.6-0.1l-0.1,44.4H135.2z M191.1,79.5V66.7
						l-11.2-14.6h-5.6l-12.8,8V52h-22.1v71.5h21.9v-53h7.9v9H191.1z"/>
					<path class="st9" d="M229.9,143.6h-30.1V30.1h30.1V143.6z M225.9,123.6V33.7h-21.8v89.9C204.1,123.6,225.9,123.6,225.9,123.6z"
						/>
					<path class="st9" d="M234.5,143.6V65.4l13-16.8h46.9v78.2l-13,16.8H234.5z M268.7,96.8v8.6h-30v18.2h37.5l14.1-18.3V78.6h-29.8
						V70h29.8V52.1h-40.5l-11.1,14.4v30.3H268.7z"/>
				</g>
				<path class="st9" d="M69.8,70.9H62V97h7.8V70.9z M69.5,60.6v-8.5h21.9v67.1l-14.1,18.2H39.9V119h29.8l0.1-7.1H48.2L40,101V66.7
					l10.7-14.5h5.7L69.5,60.6z M65.5,48.6v4.3l-6.6-4.3H48.8L35.9,65.3v92.1h46.7l13-16.9V48.8h-0.1l0.1-0.2h-0.1v-0.1L65.5,48.6z"
					/>
				<path class="st9" d="M100.2,143.6h30V30.1h-30V143.6z M104.4,33.6h21.8v10.9h-21.8L104.4,33.6z M104.4,52.3h21.8v71.3h-21.8
					L104.4,52.3z"/>
				<path class="st9" d="M165,143.6l0.1-44.4h29.6V65.3l-12.9-16.8h-10.1l-6.6,4.3v-4.2h-30l-0.1,95.1L165,143.6L165,143.6z
					 M168.8,79.5v-9h-7.9v53.1h-21.8V52.1h22v8.1l12.7-8.1h5.6l11.2,14.6v12.8H168.8z"/>
				<path class="st9" d="M203.5,33.6h21.7v89.9h-21.7V33.6z M229.2,30.1h-30v113.5h30V30.1z"/>
				<path class="st9" d="M280.6,143.6l13-16.8V48.5h-46.8l-12.9,16.9v78.2H280.6z M238,96.8V66.5l11.1-14.4h40.4V70h-29.7v8.6h29.7
					v26.7l-14.1,18.3H238v-18.2h29.9v-8.6L238,96.8L238,96.8z"/>
				<g>
					<path class="st8" d="M35.9,276.8v-78.2l12.5-16.9h45.2v78.2l-12.5,16.8H35.9V276.8z M68.8,230v8.6H39.9v18.1H76l13.7-18.3
						v-26.7H61v-8.6h28.7v-17.9h-39L40,199.6v30.3L68.8,230L68.8,230z"/>
					<path class="st8" d="M155.8,181.2l-0.1,76.1v19.6h-29.1v-4.3l-6.4,4.3h-9.8l-12.5-16.8v-78.8h57.9L155.8,181.2L155.8,181.2z
						 M102,184.7v53.7l13.7,18.3h2.6l12.2-8v8.1h21.2v-72.1h-21.1v54.2H123v-54.2L102,184.7L102,184.7z"/>
					<path class="st8" d="M189.3,276.4v16.1h-29.1V181.7h29.1v4.3l6.4-4.3h9.8l12.5,16.9v61.6l-12.2,16.3L189.3,276.4L189.3,276.4z
						 M200.5,256.8l13.6-18.2v-38.4l-10.9-14.5h-5.5l-12.9,8.4v-8.4h-20.6v87h21v-16L200.5,256.8z M185.5,204.1h7.6v34.6h-7.6V204.1
						z"/>
					<path class="st8" d="M251.5,276.4v16.1h-29V181.7h29v4.3l6.4-4.3h9.8l12.5,16.8V260L268,276.3h-16.5V276.4z M262.7,256.8
						l13.6-18.2v-38.4l-10.9-14.5h-5.5l-12.9,8.4v-8.4h-20.5v87h21v-16L262.7,256.8z M247.7,204.1h7.6v34.6h-7.6V204.1L247.7,204.1z
						"/>
					<path class="st8" d="M284.7,276.8V198l12.5-16.9h45.2v78.8l-12.5,16.8L284.7,276.8L284.7,276.8z M338.5,184.7h-39.1l-10.7,14.4
						v57.6h36.1l13.7-18.3V184.7z M309.9,204.1h7.6v34.6h-7.6V204.1z"/>
					<path class="st8" d="M346.9,276.8l0.1-95.1h29.1v4.3l6.4-4.3h9.8l12.5,16.8v33.9l-28.6-0.1l-0.1,44.4h-29.2L346.9,276.8
						L346.9,276.8z M400.7,212.7v-12.8l-10.8-14.6h-5.5l-12.3,8.1v-8.1h-21.2v71.4H372v-53h7.6v9.1L400.7,212.7z"/>
					<path class="st8" d="M421.6,276.8L409.1,260v-85.5h29.1v7.4h28.7v94.9H421.6z M462.8,204.2v-18.8H434v-7.5h-21.1v60.5
						l13.6,18.3h36.2v-44.4h-20.9v26.6H434v-34.6L462.8,204.2z"/>
				</g>
				<g>
					<path class="st9" d="M35.9,276.8v-78.2l12.5-16.9h45.2v78.2l-12.5,16.8H35.9V276.8z M68.8,230v8.6H39.9v18.1H76l13.7-18.3
						v-26.7H61v-8.6h28.7v-17.9h-39L40,199.6v30.3L68.8,230L68.8,230z"/>
					<path class="st9" d="M155.8,181.2l-0.1,76.1v19.6h-29.1v-4.3l-6.4,4.3h-9.8l-12.5-16.8v-78.8h57.9L155.8,181.2L155.8,181.2z
						 M102,184.7v53.7l13.7,18.3h2.6l12.2-8v8.1h21.2v-72.1h-21.1v54.2H123v-54.2L102,184.7L102,184.7z"/>
					<path class="st9" d="M189.3,276.4v16.1h-29.1V181.7h29.1v4.3l6.4-4.3h9.8l12.5,16.9v61.6l-12.2,16.3L189.3,276.4L189.3,276.4z
						 M200.5,256.8l13.6-18.2v-38.4l-10.9-14.5h-5.5l-12.9,8.4v-8.4h-20.6v87h21v-16L200.5,256.8z M185.5,204.1h7.6v34.6h-7.6V204.1
						z"/>
					<path class="st9" d="M251.5,276.4v16.1h-29V181.7h29v4.3l6.4-4.3h9.8l12.5,16.8V260L268,276.3h-16.5V276.4z M262.7,256.8
						l13.6-18.2v-38.4l-10.9-14.5h-5.5l-12.9,8.4v-8.4h-20.5v87h21v-16L262.7,256.8z M247.7,204.1h7.6v34.6h-7.6V204.1L247.7,204.1z
						"/>
					<path class="st9" d="M284.7,276.8V198l12.5-16.9h45.2v78.8l-12.5,16.8L284.7,276.8L284.7,276.8z M338.5,184.7h-39.1l-10.7,14.4
						v57.6h36.1l13.7-18.3V184.7z M309.9,204.1h7.6v34.6h-7.6V204.1z"/>
					<path class="st9" d="M346.9,276.8l0.1-95.1h29.1v4.3l6.4-4.3h9.8l12.5,16.8v33.9l-28.6-0.1l-0.1,44.4h-29.2L346.9,276.8
						L346.9,276.8z M400.7,212.7v-12.8l-10.8-14.6h-5.5l-12.3,8.1v-8.1h-21.2v71.4H372v-53h7.6v9.1L400.7,212.7z"/>
					<path class="st9" d="M421.6,276.8L409.1,260v-85.5h29.1v7.4h28.7v94.9H421.6z M462.8,204.2v-18.8H434v-7.5h-21.1v60.5
						l13.6,18.3h36.2v-44.4h-20.9v26.6H434v-34.6L462.8,204.2z"/>
				</g>
				<path class="st9" d="M81.2,276.8L93.8,260v-78.3H48.4l-12.5,16.9v78.2H81.2L81.2,276.8z M39.9,230v-30.3l10.8-14.4h39.2v17.9
					H61.1v8.6h28.8v26.7l-13.7,18.2H39.9v-18.2h29v-8.6L39.9,230L39.9,230z"/>
				<path class="st9" d="M123.3,184.7v54.2h7.7v-54.2h21.1v72h-21.3v-8l-12.3,8h-2.6l-13.7-18.3v-53.7L123.3,184.7L123.3,184.7z
					 M98.3,181.2V260l12.5,16.8h9.8l6.4-4.3v4.3h29.2v-19.6l0.1-76.1L98.3,181.2z"/>
				<path class="st9" d="M186,238.7h7.7v-34.6H186V238.7z M206.4,276.4l12.2-16.3v-61.5L206,181.7h-9.8l-6.4,4.3v-4.3h-29.1v110.8
					h29.2v-16.1H206.4L206.4,276.4z M185.7,256.8v16h-21v-87h20.7v8.4l12.9-8.4h5.5l10.9,14.5v38.4l-13.6,18.2L185.7,256.8z"/>
				<path class="st9" d="M248.4,238.7h7.7v-34.6h-7.7L248.4,238.7L248.4,238.7z M268.8,276.4l12.2-16.3v-61.5l-12.5-16.9h-9.8
					l-6.4,4.3v-4.3h-29.1v110.8h29.1v-16.1H268.8L268.8,276.4z M248.1,256.8v16h-21v-87h20.7v8.4l12.9-8.4h5.5l10.9,14.5v38.4
					l-13.6,18.2L248.1,256.8z"/>
				<path class="st9" d="M310.8,238.7h7.7v-34.6h-7.7V238.7z M330.8,276.8l12.6-16.8v-78.8h-45.3L285.5,198v78.8H330.8z
					 M339.5,238.4l-13.7,18.3h-36.3v-57.6l10.8-14.4h39.2V238.4z"/>
				<path class="st9" d="M377,276.8v-44.4l28.7,0.1v-33.9l-12.4-16.9h-9.8l-6.4,4.3v-4.3H348l-0.1,95.1L377,276.8L377,276.8z
					 M380.7,212.7v-9H373v53.1h-21.1v-71.6h21.3v8.1l12.3-8.1h5.5l10.8,14.6v12.9L380.7,212.7L380.7,212.7z"/>
				<g>
					<path class="st8" d="M198.9,299.7"/>
				</g>
				<g>
					<path class="st9" d="M198.9,299.7"/>
				</g>
				<path class="st9" d="M228.4,299.7"/>
			</g>
		</g>
		<g class="st7">
			<path class="st8" d="M95.8,320.4L95.8,320.4l0.1,0.1v0.2l0,0v91.7l-13,16.9H36v-92.1l13-16.8h10.1l6.6,4.3v-4.2L95.8,320.4
				L95.8,320.4z M56.5,324.1h-5.7L40,338.6v34.3l8.3,10.9h21.5l-0.1,7H40v18.5h37.6l14.1-18.2V324h-22v8.5L56.5,324.1z M62.2,368.9
				v-26.1H70v26.1H62.2z"/>
			<path class="st8" d="M100.5,302h30.2v113.5h-30.2V302z M126.6,316.4v-10.9h-21.9v10.9H126.6z M104.8,395.4h21.9v-71.2h-21.9
				V395.4z"/>
			<path class="st8" d="M135.3,415.5l0.1-95.1h30.1v4.3l6.6-4.3h10.2l12.9,16.8v34l-29.7-0.1l-0.1,44.4L135.3,415.5z M191.1,351.4
				v-12.8L179.9,324h-5.6l-12.8,8.1V324h-22v71.5h21.9v-53.1h7.9v9.1h21.8L191.1,351.4L191.1,351.4z"/>
			<path class="st8" d="M230,415.5h-30.1V302H230V415.5z M226,395.5v-90h-21.8v89.9L226,395.5z"/>
			<path class="st8" d="M234.6,415.5v-78.2l13-16.9h46.9v78.3l-13,16.9h-46.9V415.5z M268.8,368.7v8.6h-30v18.2h37.5l14.1-18.3
				v-26.7h-29.8v-8.6h29.9V324H250l-11.1,14.4v30.3L268.8,368.7L268.8,368.7z"/>
		</g>
		<g class="st7">
			<path class="st9" d="M95.8,320.4L95.8,320.4l0.1,0.1v0.2l0,0v91.7l-13,16.9H36v-92.1l13-16.8h10.1l6.6,4.3v-4.2L95.8,320.4
				L95.8,320.4z M56.5,324.1h-5.7L40,338.6v34.3l8.3,10.9h21.5l-0.1,7H40v18.5h37.6l14.1-18.2V324h-22v8.5L56.5,324.1z M62.2,368.9
				v-26.1H70v26.1H62.2z"/>
			<path class="st9" d="M100.5,302h30.2v113.5h-30.2V302z M126.6,316.4v-10.9h-21.9v10.9H126.6z M104.8,395.4h21.9v-71.2h-21.9
				V395.4z"/>
			<path class="st9" d="M135.3,415.5l0.1-95.1h30.1v4.3l6.6-4.3h10.2l12.9,16.8v34l-29.7-0.1l-0.1,44.4L135.3,415.5z M191.1,351.4
				v-12.8L179.9,324h-5.6l-12.8,8.1V324h-22v71.5h21.9v-53.1h7.9v9.1h21.8L191.1,351.4L191.1,351.4z"/>
			<path class="st9" d="M230,415.5h-30.1V302H230V415.5z M226,395.5v-90h-21.8v89.9L226,395.5z"/>
			<path class="st9" d="M234.6,415.5v-78.2l13-16.9h46.9v78.3l-13,16.9h-46.9V415.5z M268.8,368.7v8.6h-30v18.2h37.5l14.1-18.3
				v-26.7h-29.8v-8.6h29.9V324H250l-11.1,14.4v30.3L268.8,368.7L268.8,368.7z"/>
		</g>
		<path class="st10" d="M69.9,342.7h-7.8v26.1h7.8V342.7z M69.6,332.5V324h21.9v67.1l-14.1,18.2H40v-18.4h29.8l0.1-7.1H48.3
			l-8.2-10.9v-34.4L50.9,324h5.6L69.6,332.5z M65.6,320.5v4.3l-6.6-4.3H48.9L36,337.3v92.1h46.7l13-16.9v-91.8h-0.1l0.1-0.2h-0.2
			v-0.1L65.6,320.5z"/>
		<path class="st10" d="M100.3,415.5h30V302h-30V415.5z M104.5,305.5h21.8v10.9h-21.8V305.5z M104.5,324.2h21.8v71.3h-21.8V324.2z"
			/>
		<path class="st10" d="M165,415.5l0.1-44.4h29.6v-33.9l-12.9-16.8h-10.1l-6.6,4.3v-4.2h-30l-0.1,95.1h30V415.5z M168.8,351.4v-9
			h-7.9v53.1h-21.8v-71.6h22v8.1l12.7-8.1h5.6l11.2,14.6v12.8h-21.8V351.4z"/>
		<path class="st10" d="M203.6,305.5h21.7v89.9h-21.7V305.5z M229.3,302h-30v113.5h30V302z"/>
		<path class="st10" d="M280.7,415.5l13-16.9v-78.2h-46.8L234,337.3v78.2H280.7z M238.1,368.7v-30.4l11.1-14.4h40.4v17.9h-29.7v8.6
			h29.7v26.7l-14.1,18.3h-37.4v-18.2H268v-8.5H238.1z"/>
	</g>
</g>
</svg>
