<svg xmlns="http://www.w3.org/2000/svg" viewBox="0 0 467 411"><defs><style>.cls-1,.cls-3{font-size:110.96px;font-family:Blockt;}.cls-1,.cls-2{fill:#ed6a5a;}.cls-1,.cls-2,.cls-3,.cls-4{stroke:#3e3e3e;stroke-miterlimit:10;stroke-width:2px;}.cls-3,.cls-4{fill:#9bc1bc;}</style></defs><title>gsg-mini-logo</title><g id="Artboard_2" data-name="Artboard 2"><g id="logo_3" data-name="logo 3"><text class="cls-1" transform="translate(24.61 102.93) scale(1.1 1)">girls</text><path class="cls-2" d="M58.58,51.56H50.8V77.68h7.78Zm-.3-10.29V32.76H80.2V99.89L66.13,118.1H28.65V99.68H58.4l.06-7.05H37L28.76,81.74V47.39L39.51,32.92h5.65Zm-4-12v4.28l-6.6-4.34H37.61L24.67,46v92.05H71.41l13-16.85V29.51H84.3l.06-.21h-.12v-.06Z"/><path class="cls-2" d="M89,124.33H119V10.82H89Zm4.22-110H115V25.23H93.21Zm0,18.64H115v71.3H93.21Z"/><path class="cls-2" d="M153.73,124.33l.06-44.43,29.59,0V46l-12.9-16.8H160.39l-6.6,4.28V29.24h-30l-.06,95.09Zm3.81-64.1v-9h-7.9v53.1h-21.8V32.76h22v8.07l12.7-8.07h5.65l11.16,14.63V60.23Z"/><path class="cls-2" d="M192.28,14.34H214v89.94H192.28ZM218,10.82H188V124.33h30Z"/><path class="cls-2" d="M269.38,124.33l12.95-16.85V29.24H235.58L222.64,46.09v78.24ZM226.79,77.52V47.17L237.9,32.76h40.39V50.69h-29.7v8.57h29.7V86l-14.14,18.31H226.79V86.13h29.88V77.52Z"/><text class="cls-3" transform="translate(24.61 236.09) scale(1.06 1)">support</text><path class="cls-4" d="M70,257.49l12.56-16.85V162.4H37.22L24.67,179.25v78.24ZM28.69,210.67V180.33l10.78-14.41H78.65v17.93H49.84v8.57H78.65v26.71L64.94,237.44H28.69V219.29h29v-8.62Z"/><path class="cls-4" d="M112.12,165.38v54.18h7.67V165.38h21.14v72.06H119.61v-8.07l-12.33,8.07h-2.59L91,219.13V165.38Zm-25.06-3.52v78.83l12.51,16.8h9.79l6.39-4.28v4.28h29.16V237.93l.05-76.07Z"/><path class="cls-4" d="M174.76,219.4h7.66V184.78h-7.66Zm20.39,37.65,12.22-16.31V179.19l-12.56-16.85H185l-6.39,4.34V162.4H149.46V273.15h29.16v-16.1Zm-20.63-19.56v16h-21v-87h20.68v8.45l12.91-8.45h5.47l10.89,14.47v38.36l-13.65,18.2Z"/><path class="cls-4" d="M237.15,219.4h7.67V184.78h-7.67Zm20.4,37.65,12.21-16.31V179.19l-12.55-16.85h-9.8l-6.4,4.34V162.4H211.86V273.15H241v-16.1Zm-20.63-19.56v16h-21v-87h20.68v8.45l12.9-8.45H255l10.88,14.47v38.36l-13.65,18.2Z"/><path class="cls-4" d="M299.56,219.4h7.66V184.78h-7.66Zm20.05,38.09,12.56-16.85V161.86H286.82l-12.56,16.85v78.78Zm8.64-38.36-13.72,18.31H278.29V179.79l10.78-14.41h39.18Z"/><path class="cls-4" d="M365.82,257.49l.05-44.43,28.7.05V179.19L382.06,162.4h-9.79l-6.4,4.28V162.4H336.72l-.06,95.09Zm3.68-64.1v-9h-7.66v53.1H340.69V165.92H362V174l12.33-8.07h5.47l10.84,14.63v12.84Z"/><text class="cls-1" transform="translate(24.61 369.25) scale(1.1 1)">girls</text><path class="cls-2" d="M58.58,317.88H50.8V344h7.78Zm-.3-10.3v-8.5H80.2v67.13l-14.07,18.2H28.65V366H58.4l.06-7.05H37l-8.26-10.88V313.71l10.75-14.47h5.65Zm-4-12v4.27l-6.6-4.33H37.61L24.67,312.35v92.06H71.41l13-16.85V295.83H84.3l.06-.22h-.12v-.05Z"/><path class="cls-2" d="M89,390.64H119V277.13H89Zm4.22-110H115v10.89H93.21Zm0,18.63H115V370.6H93.21Z"/><path class="cls-2" d="M153.73,390.64l.06-44.42,29.59,0V312.35l-12.9-16.79H160.39l-6.6,4.27v-4.27h-30l-.06,95.08Zm3.81-64.09V317.5h-7.9v53.1h-21.8V299.08h22v8.07l12.7-8.07h5.65l11.16,14.63v12.84Z"/><path class="cls-2" d="M192.28,280.66H214V370.6H192.28ZM218,277.13H188V390.64h30Z"/><path class="cls-2" d="M269.38,390.64l12.95-16.85V295.56H235.58l-12.94,16.85v78.23Zm-42.59-46.81V313.49l11.11-14.41h40.39V317h-29.7v8.56h29.7v26.71L264.15,370.6H226.79V352.44h29.88v-8.61Z"/></g></g></svg>