<svg id="Layer_1" data-name="Layer 1" xmlns="http://www.w3.org/2000/svg" viewBox="0 0 432.95 401.15">
    <title>gsg-mini-logo</title>
    <g id="Artboard_2" data-name="Artboard 2">
        <g id="logo_3" data-name="logo 3">
            <path d="M96.78,52.43v0h.11v.22h0v91.72l-13,16.85H37V69.18L50,52.33H60.12l6.62,4.34V52.43ZM57.56,56.11H51.9L41.11,70.58v34.35l8.29,10.89H70.91l-.06,7H41v18.46H78.6l14.12-18.2V56h-22v8.5Zm5.66,44.75V74.75H71v26.11Z" transform="translate(-36 -33)" style="fill:#ed6a5a" />
            <path d="M101.54,34H131.7V147.51H101.54Zm26.11,14.42V37.53H105.78V48.42Zm-21.87,79h21.87V56.18H105.78Z" transform="translate(-36 -33)" style="fill:#ed6a5a" />
            <path d="M136.33,147.51l.06-95.08h30.15v4.28l6.62-4.28h10.17l12.91,16.75v34l-29.68-.06-.06,44.43Zm55.84-64.09V70.58L181,56h-5.64L162.57,64V56h-22v71.51h21.87V74.37h7.94v9Z" transform="translate(-36 -33)" style="fill:#ed6a5a" />
            <path d="M231,147.51h-30.1V34H231Zm-4-20v-90H205.18v89.93Z" transform="translate(-36 -33)" style="fill:#ed6a5a" />
            <path d="M235.64,147.51V69.28l13-16.85h46.9v78.23l-13,16.85Zm34.15-46.81v8.61h-30v18.15h37.54l14.15-18.28V82.44h-29.8V73.88h29.8V56H251L239.81,70.36V100.7Z" transform="translate(-36 -33)" style="fill:#ed6a5a" />
            <path d="M96.78,52.43v0h.11v.22h0v91.72l-13,16.85H37V69.18L50,52.33H60.12l6.62,4.34V52.43ZM57.56,56.11H51.9L41.11,70.58v34.35l8.29,10.89H70.91l-.06,7H41v18.46H78.6l14.12-18.2V56h-22v8.5Zm5.66,44.75V74.75H71v26.11Z" transform="translate(-36 -33)" style="fill:none;stroke:#3e3e3e;stroke-miterlimit:10;stroke-width:2px" />
            <path d="M101.54,34H131.7V147.51H101.54Zm26.11,14.42V37.53H105.78V48.42Zm-21.87,79h21.87V56.18H105.78Z" transform="translate(-36 -33)" style="fill:none;stroke:#3e3e3e;stroke-miterlimit:10;stroke-width:2px" />
            <path d="M136.33,147.51l.06-95.08h30.15v4.28l6.62-4.28h10.17l12.91,16.75v34l-29.68-.06-.06,44.43Zm55.84-64.09V70.58L181,56h-5.64L162.57,64V56h-22v71.51h21.87V74.37h7.94v9Z" transform="translate(-36 -33)" style="fill:none;stroke:#3e3e3e;stroke-miterlimit:10;stroke-width:2px" />
            <path d="M231,147.51h-30.1V34H231Zm-4-20v-90H205.18v89.93Z" transform="translate(-36 -33)" style="fill:none;stroke:#3e3e3e;stroke-miterlimit:10;stroke-width:2px" />
            <path d="M235.64,147.51V69.28l13-16.85h46.9v78.23l-13,16.85Zm34.15-46.81v8.61h-30v18.15h37.54l14.15-18.28V82.44h-29.8V73.88h29.8V56H251L239.81,70.36V100.7Z" transform="translate(-36 -33)" style="fill:none;stroke:#3e3e3e;stroke-miterlimit:10;stroke-width:2px" />
            <path d="M70.91,74.74H63.13v26.12h7.78Zm-.3-10.29V55.94H92.53v67.13L78.46,141.28H41V122.86H70.73l.06-7H49.33l-8.24-10.89V70.57L51.84,56.1h5.65Zm-4-12v4.28L60,52.39H49.94L37,69.18v92H83.74l13-16.85V52.69h-.11l.06-.21h-.12v-.06Z" transform="translate(-36 -33)" style="fill:#ed6a5a;stroke:#3e3e3e;stroke-miterlimit:10;stroke-width:2px" />
            <path d="M101.33,147.51h30V34h-30Zm4.22-110h21.78v10.9H105.54Zm0,18.64h21.78v71.3H105.54Z" transform="translate(-36 -33)" style="fill:#ed6a5a;stroke:#3e3e3e;stroke-miterlimit:10;stroke-width:2px" />
            <path d="M166.06,147.51l.06-44.43h29.59V69.18l-12.9-16.8H172.72l-6.6,4.28V52.42h-30l-.06,95.09Zm3.81-64.1v-9H162v53.1h-21.8V55.94h22V64l12.7-8.07h5.65l11.16,14.63V83.41Z" transform="translate(-36 -33)" style="fill:#ed6a5a;stroke:#3e3e3e;stroke-miterlimit:10;stroke-width:2px" />
            <path d="M204.61,37.52h21.72v89.94H204.61ZM230.33,34h-30V147.51h30Z" transform="translate(-36 -33)" style="fill:#ed6a5a;stroke:#3e3e3e;stroke-miterlimit:10;stroke-width:2px" />
            <path d="M281.71,147.51l13-16.85V52.42H247.91L235,69.27v78.24ZM239.12,100.7V70.35l11.11-14.41h40.39V73.87h-29.7v8.57h29.7v26.74l-14.14,18.31H239.12V109.31H269V100.7Z" transform="translate(-36 -33)" style="fill:#ed6a5a;stroke:#3e3e3e;stroke-miterlimit:10;stroke-width:2px" />
            <path d="M37,280.67V202.44l12.52-16.85H94.71v78.23L82.2,280.67Zm32.9-46.81v8.61H41v18.15H77.14l13.67-18.31V215.6H62.09V207H90.81V189.11H51.76L41,203.52v30.34Z" transform="translate(-36 -33)" style="fill:#9bc1bc" />
            <path d="M156.91,185l-.06,76.07v19.56H127.79v-4.28l-6.37,4.28h-9.76L99.19,263.88V185Zm-53.81,3.53v53.74l13.67,18.31h2.56l12.29-8.07v8.07h21.25V188.57H131.81v54.17h-7.63V188.57Z" transform="translate(-36 -33)" style="fill:#9bc1bc" />
            <path d="M190.45,280.24v16.09H161.39V185.59h29.06v4.28l6.38-4.34h9.76l12.52,16.85v61.55l-12.18,16.31Zm11.14-19.56,13.61-18.21V204.12l-10.87-14.47h-5.46L186,198.1v-8.45h-20.6v87h21v-16Zm-15-52.72h7.64v34.62h-7.64Z" transform="translate(-36 -33)" style="fill:#9bc1bc" />
            <path d="M252.65,280.24v16.09H223.59V185.59h29.06v4.28l6.37-4.34h9.77l12.54,16.85v61.55l-12.2,16.31Zm11.14-19.56,13.61-18.21V204.12l-10.85-14.47h-5.46l-12.86,8.45v-8.45H227.61v87h21v-16Zm-15-52.72h7.64v34.62h-7.64Z" transform="translate(-36 -33)" style="fill:#9bc1bc" />
            <path d="M285.79,280.67V201.89L298.33,185h45.19v78.78L331,280.67Zm53.81-92.1H300.54L289.81,203v57.64h36.12l13.67-18.31ZM311,208h7.64v34.62H311Z" transform="translate(-36 -33)" style="fill:#9bc1bc" />
            <path d="M348,280.67l.06-95.08H377.1v4.28l6.37-4.28h9.77l12.46,16.79V236.3l-28.6-.06L377,280.67Zm53.81-64.09V203.74L391,189.11h-5.46l-12.29,8.07v-8.07H352v71.51h21.08V207.53h7.64v9.05Z" transform="translate(-36 -33)" style="fill:#9bc1bc" />
            <path d="M422.7,280.67l-12.52-16.85V178.33h29.06v7.42H468v94.92Zm41.24-72.55v-18.8H435.16v-7.47H414.09v60.46l13.61,18.31h36.18V216.18H443v26.55h-7.81V208.12Z" transform="translate(-36 -33)" style="fill:#9bc1bc" />
            <path d="M37,280.67V202.44l12.52-16.85H94.71v78.23L82.2,280.67Zm32.9-46.81v8.61H41v18.15H77.14l13.67-18.31V215.6H62.09V207H90.81V189.11H51.76L41,203.52v30.34Z" transform="translate(-36 -33)" style="fill:none;stroke:#3e3e3e;stroke-miterlimit:10;stroke-width:2px" />
            <path d="M156.91,185l-.06,76.07v19.56H127.79v-4.28l-6.37,4.28h-9.76L99.19,263.88V185Zm-53.81,3.53v53.74l13.67,18.31h2.56l12.29-8.07v8.07h21.25V188.57H131.81v54.17h-7.63V188.57Z" transform="translate(-36 -33)" style="fill:none;stroke:#3e3e3e;stroke-miterlimit:10;stroke-width:2px" />
            <path d="M190.45,280.24v16.09H161.39V185.59h29.06v4.28l6.38-4.34h9.76l12.52,16.85v61.55l-12.18,16.31Zm11.14-19.56,13.61-18.21V204.12l-10.87-14.47h-5.46L186,198.1v-8.45h-20.6v87h21v-16Zm-15-52.72h7.64v34.62h-7.64Z" transform="translate(-36 -33)" style="fill:none;stroke:#3e3e3e;stroke-miterlimit:10;stroke-width:2px" />
            <path d="M252.65,280.24v16.09H223.59V185.59h29.06v4.28l6.37-4.34h9.77l12.54,16.85v61.55l-12.2,16.31Zm11.14-19.56,13.61-18.21V204.12l-10.85-14.47h-5.46l-12.86,8.45v-8.45H227.61v87h21v-16Zm-15-52.72h7.64v34.62h-7.64Z" transform="translate(-36 -33)" style="fill:none;stroke:#3e3e3e;stroke-miterlimit:10;stroke-width:2px" />
            <path d="M285.79,280.67V201.89L298.33,185h45.19v78.78L331,280.67Zm53.81-92.1H300.54L289.81,203v57.64h36.12l13.67-18.31ZM311,208h7.64v34.62H311Z" transform="translate(-36 -33)" style="fill:none;stroke:#3e3e3e;stroke-miterlimit:10;stroke-width:2px" />
            <path d="M348,280.67l.06-95.08H377.1v4.28l6.37-4.28h9.77l12.46,16.79V236.3l-28.6-.06L377,280.67Zm53.81-64.09V203.74L391,189.11h-5.46l-12.29,8.07v-8.07H352v71.51h21.08V207.53h7.64v9.05Z" transform="translate(-36 -33)" style="fill:none;stroke:#3e3e3e;stroke-miterlimit:10;stroke-width:2px" />
            <path d="M422.7,280.67l-12.52-16.85V178.33h29.06v7.42H468v94.92Zm41.24-72.55v-18.8H435.16v-7.47H414.09v60.46l13.61,18.31h36.18V216.18H443v26.55h-7.81V208.12Z" transform="translate(-36 -33)" style="fill:none;stroke:#3e3e3e;stroke-miterlimit:10;stroke-width:2px" />
            <path d="M82.33,280.67l12.56-16.85V185.58H49.55L37,202.43v78.24ZM41,233.85V203.51L51.8,189.1H91V207H62.17v8.57H91v26.71L77.27,260.62H41V242.47H70v-8.62Z" transform="translate(-36 -33)" style="fill:#9bc1bc;stroke:#3e3e3e;stroke-miterlimit:10;stroke-width:2px" />
            <path d="M124.45,188.56v54.18h7.67V188.56h21.14v72.06H131.94v-8.07l-12.33,8.07H117l-13.69-18.31V188.56ZM99.39,185v78.83l12.51,16.8h9.79l6.39-4.28v4.28h29.16V261.11l0-76.07Z" transform="translate(-36 -33)" style="fill:#9bc1bc;stroke:#3e3e3e;stroke-miterlimit:10;stroke-width:2px" />
            <path d="M187.09,242.58h7.66V208h-7.66Zm20.39,37.65,12.22-16.31V202.37l-12.56-16.85h-9.81l-6.39,4.34v-4.28H161.79V296.33H191v-16.1Zm-20.63-19.56v16h-21v-87h20.68v8.45l12.91-8.45h5.47l10.89,14.51v38.36l-13.65,18.2Z" transform="translate(-36 -33)" style="fill:#9bc1bc;stroke:#3e3e3e;stroke-miterlimit:10;stroke-width:2px" />
            <path d="M249.48,242.58h7.67V208h-7.67Zm20.4,37.65,12.21-16.31V202.37l-12.55-16.85h-9.8l-6.4,4.34v-4.28H224.19V296.33h29.14v-16.1Zm-20.63-19.56v16h-21v-87h20.68v8.45l12.9-8.45h5.5l10.88,14.51v38.36l-13.65,18.2Z" transform="translate(-36 -33)" style="fill:#9bc1bc;stroke:#3e3e3e;stroke-miterlimit:10;stroke-width:2px" />
            <path d="M311.89,242.58h7.66V208h-7.66Zm20.05,38.09,12.56-16.85V185H299.15l-12.56,16.85v78.78Zm8.64-38.36-13.72,18.31H290.62V203l10.78-14.41h39.18Z" transform="translate(-36 -33)" style="fill:#9bc1bc;stroke:#3e3e3e;stroke-miterlimit:10;stroke-width:2px" />
            <path d="M378.15,280.67l.05-44.43,28.7,0V202.37l-12.51-16.79H384.6l-6.4,4.28v-4.28H349.05L349,280.67Zm3.68-64.1v-9h-7.66v53.1H353V189.1h21.31v8.08l12.33-8.07h5.47L403,203.74v12.84Z" transform="translate(-36 -33)" style="fill:#9bc1bc;stroke:#3e3e3e;stroke-miterlimit:10;stroke-width:2px" />
            <path d="M230.13,303.55m-30.1,0" transform="translate(-36 -33)" style="fill:#ed6a5a" />
            <path d="M230.13,303.55m-30.1,0" transform="translate(-36 -33)" style="fill:none;stroke:#3e3e3e;stroke-miterlimit:10;stroke-width:2px" />
            <path d="M229.47,303.54" transform="translate(-36 -33)" style="fill:#ed6a5a;stroke:#3e3e3e;stroke-miterlimit:10;stroke-width:2px" />
        </g>
    </g>
    <path d="M96.86,324.31v.05H97v.22h0V416.3L84,433.15H37.08V341.06l13-16.85H60.2l6.62,4.34v-4.24ZM57.64,328H52L41.19,342.46v34.35l8.29,10.89H71l-.06,7H41.07v18.46H78.68L92.8,395V327.83h-22v8.5Zm5.66,44.75V346.63h7.81v26.11Z" transform="translate(-36 -33)" style="fill:#ed6a5a" />
    <path d="M101.62,305.88h30.15V419.39H101.62Zm26.11,14.42V309.41H105.86V320.3Zm-21.87,79h21.87V328.06H105.86Z" transform="translate(-36 -33)" style="fill:#ed6a5a" />
    <path d="M136.41,419.39l.06-95.08h30.14v4.28l6.62-4.28h10.18l12.91,16.75v34L166.64,375l-.06,44.43Zm55.83-64.09V342.46l-11.19-14.63h-5.64l-12.76,8.07v-8.07H140.6v71.51h21.87V346.25h7.94v9.05Z" transform="translate(-36 -33)" style="fill:#ed6a5a" />
    <path d="M231.07,419.39H201V305.88h30.1Zm-4-20v-90H205.26v89.93Z" transform="translate(-36 -33)" style="fill:#ed6a5a" />
    <path d="M235.72,419.39V341.16l13-16.85h46.89v78.23l-13,16.85Zm34.14-46.81v8.61h-30v18.15h37.55l14.14-18.28V354.32h-29.8v-8.56h29.8V327.83H251l-11.14,14.41v30.34Z" transform="translate(-36 -33)" style="fill:#ed6a5a" />
    <path d="M96.86,324.31v.05H97v.22h0V416.3L84,433.15H37.08V341.06l13-16.85H60.2l6.62,4.34v-4.24ZM57.64,328H52L41.19,342.46v34.35l8.29,10.89H71l-.06,7H41.07v18.46H78.68L92.8,395V327.83h-22v8.5Zm5.66,44.75V346.63h7.81v26.11Z" transform="translate(-36 -33)" style="fill:none;stroke:#3e3e3e;stroke-miterlimit:10;stroke-width:2px" />
    <path d="M101.62,305.88h30.15V419.39H101.62Zm26.11,14.42V309.41H105.86V320.3Zm-21.87,79h21.87V328.06H105.86Z" transform="translate(-36 -33)" style="fill:none;stroke:#3e3e3e;stroke-miterlimit:10;stroke-width:2px" />
    <path d="M136.41,419.39l.06-95.08h30.14v4.28l6.62-4.28h10.18l12.91,16.75v34L166.64,375l-.06,44.43Zm55.83-64.09V342.46l-11.19-14.63h-5.64l-12.76,8.07v-8.07H140.6v71.51h21.87V346.25h7.94v9.05Z" transform="translate(-36 -33)" style="fill:none;stroke:#3e3e3e;stroke-miterlimit:10;stroke-width:2px" />
    <path d="M231.07,419.39H201V305.88h30.1Zm-4-20v-90H205.26v89.93Z" transform="translate(-36 -33)" style="fill:none;stroke:#3e3e3e;stroke-miterlimit:10;stroke-width:2px" />
    <path d="M235.72,419.39V341.16l13-16.85h46.89v78.23l-13,16.85Zm34.14-46.81v8.61h-30v18.15h37.55l14.14-18.28V354.32h-29.8v-8.56h29.8V327.83H251l-11.14,14.41v30.34Z" transform="translate(-36 -33)" style="fill:none;stroke:#3e3e3e;stroke-miterlimit:10;stroke-width:2px" />
    <path d="M71,346.62H63.21v26.12H71Zm-.3-10.29v-8.51H92.61V395L78.54,413.16H41.06V394.74H70.81l.06-7.05H49.41L41.17,376.8V342.45L51.92,328h5.65Zm-4-12v4.28l-6.6-4.34H50L37.08,341.06v92.05H83.82l13-16.85V324.57h-.11l.06-.21h-.12v-.06Z" transform="translate(-36 -33)" style="fill:#ed6a5a;stroke:#3e3e3e;stroke-miterlimit:10;stroke-width:2px" />
    <path d="M101.41,419.39h30V305.88h-30Zm4.22-110h21.78v10.9H105.62Zm0,18.64h21.78v71.3H105.62Z" transform="translate(-36 -33)" style="fill:#ed6a5a;stroke:#3e3e3e;stroke-miterlimit:10;stroke-width:2px" />
    <path d="M166.13,419.39l.06-44.43h29.59v-33.9l-12.9-16.8H172.8l-6.61,4.28V324.3h-30l-.06,95.09Zm3.81-64.1v-9h-7.89v53.1H140.24V327.82h22v8.07l12.7-8.07h5.65l11.16,14.63v12.84Z" transform="translate(-36 -33)" style="fill:#ed6a5a;stroke:#3e3e3e;stroke-miterlimit:10;stroke-width:2px" />
    <path d="M204.69,309.4h21.72v89.94H204.69Zm25.72-3.52h-30V419.39h30Z" transform="translate(-36 -33)" style="fill:#ed6a5a;stroke:#3e3e3e;stroke-miterlimit:10;stroke-width:2px" />
    <path d="M281.79,419.39l12.95-16.85V324.3H248l-12.94,16.85v78.24Zm-42.6-46.81V342.23l11.11-14.41h40.39v17.93H261v8.57h29.7v26.74l-14.14,18.31H239.19V381.19h29.88v-8.61Z" transform="translate(-36 -33)" style="fill:#ed6a5a;stroke:#3e3e3e;stroke-miterlimit:10;stroke-width:2px" />
</svg>