<svg id="Layer_2" data-name="Layer 2" xmlns="http://www.w3.org/2000/svg" viewBox="0 0 432.95 401.15">
    <title>gsg-mini-logo</title>
    <g id="Artboard_2" data-name="Artboard 2">
        <g id="logo_3" data-name="logo 3">
            <path d="M97.18,45.85v0h.11v.22h0v91.72l-13,16.85H37.4V62.6l13-16.85H60.52l6.62,4.34V45.85ZM58,49.53H52.3L41.51,64V98.35l8.29,10.89H71.31l-.06,7H41.39V134.7H79l14.12-18.2V49.37h-22v8.5Zm5.66,44.75V68.17h7.81V94.28Z" transform="translate(-36.4 -26.42)" style="fill:#aca6a5" />
            <path d="M101.94,27.42H132.1V140.93H101.94Zm26.11,14.42V31H106.18V41.84Zm-21.87,79h21.87V49.6H106.18Z" transform="translate(-36.4 -26.42)" style="fill:#aca6a5" />
            <path d="M136.73,140.93l.06-95.08h30.15v4.28l6.61-4.28h10.18L196.64,62.6v34L167,96.54,166.9,141Zm55.84-64.08V64l-11.2-14.63h-5.64L163,57.44V49.37H140.92v71.51h21.87V67.79h7.94v9Z" transform="translate(-36.4 -26.42)" style="fill:#aca6a5" />
            <path d="M231.39,140.93h-30.1V27.42h30.1Zm-4-20V31H205.58v89.93Z" transform="translate(-36.4 -26.42)" style="fill:#aca6a5" />
            <path d="M236,140.93V62.7l13-16.85h46.9v78.23l-13,16.85Zm34.15-46.81v8.62h-30v18.15h37.54l14.15-18.29V75.86h-29.8V67.3h29.8V49.37H251.35L240.21,63.78V94.12Z" transform="translate(-36.4 -26.42)" style="fill:#aca6a5" />
            <path d="M97.18,45.85v0h.11v.22h0v91.72l-13,16.85H37.4V62.6l13-16.85H60.52l6.62,4.34V45.85ZM58,49.53H52.3L41.51,64V98.35l8.29,10.89H71.31l-.06,7H41.39V134.7H79l14.12-18.2V49.37h-22v8.5Zm5.66,44.75V68.17h7.81V94.28Z" transform="translate(-36.4 -26.42)" style="fill:#aca6a5;stroke:#3e3e3e;stroke-miterlimit:10;stroke-width:2px" />
            <path d="M101.94,27.42H132.1V140.93H101.94Zm26.11,14.42V31H106.18V41.84Zm-21.87,79h21.87V49.6H106.18Z" transform="translate(-36.4 -26.42)" style="fill:#aca6a5;stroke:#3e3e3e;stroke-miterlimit:10;stroke-width:2px" />
            <path d="M136.73,140.93l.06-95.08h30.15v4.28l6.61-4.28h10.18L196.64,62.6v34L167,96.54,166.9,141Zm55.84-64.08V64l-11.2-14.63h-5.64L163,57.44V49.37H140.92v71.51h21.87V67.79h7.94v9Z" transform="translate(-36.4 -26.42)" style="fill:#aca6a5;stroke:#3e3e3e;stroke-miterlimit:10;stroke-width:2px" />
            <path d="M231.39,140.93h-30.1V27.42h30.1Zm-4-20V31H205.58v89.93Z" transform="translate(-36.4 -26.42)" style="fill:#aca6a5;stroke:#3e3e3e;stroke-miterlimit:10;stroke-width:2px" />
            <path d="M236,140.93V62.7l13-16.85h46.9v78.23l-13,16.85Zm34.15-46.81v8.62h-30v18.15h37.54l14.15-18.29V75.86h-29.8V67.3h29.8V49.37H251.35L240.21,63.78V94.12Z" transform="translate(-36.4 -26.42)" style="fill:#aca6a5;stroke:#3e3e3e;stroke-miterlimit:10;stroke-width:2px" />
            <path d="M71.31,68.16H63.53V94.28h7.78ZM71,57.87V49.36H92.93v67.13L78.86,134.7H41.38V116.28H71.13l.06-7H49.73L41.49,98.34V64L52.24,49.52h5.65Zm-4-12v4.28l-6.6-4.34H50.34L37.4,62.6v92.05H84.14l13-16.84V46.11H97l.06-.21H97v-.06Z" transform="translate(-36.4 -26.42)" style="fill:#aca6a5;stroke:#3e3e3e;stroke-miterlimit:10;stroke-width:2px" />
            <path d="M101.73,140.93h30V27.42h-30Zm4.22-110h21.78v10.9H105.94Zm0,18.64h21.78v71.31H105.94Z" transform="translate(-36.4 -26.42)" style="fill:#aca6a5;stroke:#3e3e3e;stroke-miterlimit:10;stroke-width:2px" />
            <path d="M166.46,140.93l.06-44.43h29.59V62.6l-12.9-16.8H173.12l-6.6,4.28V45.84h-30l-.06,95.09Zm3.81-64.1v-9h-7.9v53.1h-21.8V49.36h22v8.07l12.7-8.07h5.64L192.08,64V76.83Z" transform="translate(-36.4 -26.42)" style="fill:#aca6a5;stroke:#3e3e3e;stroke-miterlimit:10;stroke-width:2px" />
            <path d="M205,30.94h21.72v89.94H205Zm25.72-3.52h-30V140.93h30Z" transform="translate(-36.4 -26.42)" style="fill:#aca6a5;stroke:#3e3e3e;stroke-miterlimit:10;stroke-width:2px" />
            <path d="M282.11,140.93l12.95-16.85V45.84H248.31L235.37,62.69v78.24ZM239.52,94.12V63.77l11.11-14.41H291V67.29h-29.7v8.57H291V102.6l-14.14,18.31H239.52V102.73h29.87V94.12Z" transform="translate(-36.4 -26.42)" style="fill:#aca6a5;stroke:#3e3e3e;stroke-miterlimit:10;stroke-width:2px" />
            <path d="M37.4,274.09V195.86L49.92,179H95.11v78.23L82.6,274.09Zm32.9-46.81v8.61H41.42V254H77.54l13.67-18.31V209H62.49v-8.56H91.21V182.53h-39L41.42,196.94v30.34Z" transform="translate(-36.4 -26.42)" style="fill:#aca6a5" />
            <path d="M157.31,178.46l-.06,76.07v19.56H128.19v-4.28l-6.37,4.28h-9.76L99.59,257.3V178.46ZM103.5,182v53.75L117.17,254h2.56L132,246V254h21.25V182H132.21v54.17h-7.63V182Z" transform="translate(-36.4 -26.42)" style="fill:#aca6a5" />
            <path d="M190.85,273.66v16.09H161.79V179h29.06v4.28l6.38-4.33H207l12.52,16.85v61.55l-12.18,16.3ZM202,254.1l13.61-18.2V197.54l-10.87-14.47h-5.46l-12.86,8.45v-8.45h-20.6v87h21v-16Zm-15-52.72h7.64V236H187Z" transform="translate(-36.4 -26.42)" style="fill:#aca6a5" />
            <path d="M253.05,273.66v16.09H224V179h29.06v4.28l6.36-4.33h9.78l12.54,16.84v61.55l-12.21,16.31Zm11.14-19.56,13.61-18.2V197.54L267,183.07h-5.46l-12.86,8.45v-8.45H228v87h21v-16Zm-15-52.72h7.64V236h-7.64Z" transform="translate(-36.4 -26.42)" style="fill:#aca6a5" />
            <path d="M286.19,274.09V195.32l12.54-16.86h45.19v78.78L331.4,274.09ZM340,182H300.94L290.21,196.4V254h36.12L340,235.74Zm-28.6,19.39H319V236h-7.65Z" transform="translate(-36.4 -26.42)" style="fill:#aca6a5" />
            <path d="M348.38,274.09l.06-95.08h29.05v4.28l6.37-4.28h9.77l12.46,16.79v33.92l-28.6-.06-.06,44.43ZM402.19,210V197.16l-10.8-14.63h-5.45l-12.29,8.07v-8.07H352.4V254h21.08V201h7.64v9Z" transform="translate(-36.4 -26.42)" style="fill:#aca6a5" />
            <path d="M423.1,274.09l-12.52-16.85V171.75h29.06v7.42h28.71v94.92Zm41.23-72.55v-18.8H435.55v-7.47H414.49v60.46L428.1,254h36.17V209.6h-20.9v26.55h-7.81V201.54Z" transform="translate(-36.4 -26.42)" style="fill:#aca6a5" />
            <path d="M37.4,274.09V195.86L49.92,179H95.11v78.23L82.6,274.09Zm32.9-46.81v8.61H41.42V254H77.54l13.67-18.31V209H62.49v-8.56H91.21V182.53h-39L41.42,196.94v30.34Z" transform="translate(-36.4 -26.42)" style="fill:#aca6a5;stroke:#3e3e3e;stroke-miterlimit:10;stroke-width:2px" />
            <path d="M157.31,178.46l-.06,76.07v19.56H128.19v-4.28l-6.37,4.28h-9.76L99.59,257.3V178.46ZM103.5,182v53.75L117.17,254h2.56L132,246V254h21.25V182H132.21v54.17h-7.63V182Z" transform="translate(-36.4 -26.42)" style="fill:#aca6a5;stroke:#3e3e3e;stroke-miterlimit:10;stroke-width:2px" />
            <path d="M190.85,273.66v16.09H161.79V179h29.06v4.28l6.38-4.33H207l12.52,16.85v61.55l-12.18,16.3ZM202,254.1l13.61-18.2V197.54l-10.87-14.47h-5.46l-12.86,8.45v-8.45h-20.6v87h21v-16Zm-15-52.72h7.64V236H187Z" transform="translate(-36.4 -26.42)" style="fill:#aca6a5;stroke:#3e3e3e;stroke-miterlimit:10;stroke-width:2px" />
            <path d="M253.05,273.66v16.09H224V179h29.06v4.28l6.36-4.33h9.78l12.54,16.84v61.55l-12.21,16.31Zm11.14-19.56,13.61-18.2V197.54L267,183.07h-5.46l-12.86,8.45v-8.45H228v87h21v-16Zm-15-52.72h7.64V236h-7.64Z" transform="translate(-36.4 -26.42)" style="fill:#aca6a5;stroke:#3e3e3e;stroke-miterlimit:10;stroke-width:2px" />
            <path d="M286.19,274.09V195.32l12.54-16.86h45.19v78.78L331.4,274.09ZM340,182H300.94L290.21,196.4V254h36.12L340,235.74Zm-28.6,19.39H319V236h-7.65Z" transform="translate(-36.4 -26.42)" style="fill:#aca6a5;stroke:#3e3e3e;stroke-miterlimit:10;stroke-width:2px" />
            <path d="M348.38,274.09l.06-95.08h29.05v4.28l6.37-4.28h9.77l12.46,16.79v33.92l-28.6-.06-.06,44.43ZM402.19,210V197.16l-10.8-14.63h-5.45l-12.29,8.07v-8.07H352.4V254h21.08V201h7.64v9Z" transform="translate(-36.4 -26.42)" style="fill:#aca6a5;stroke:#3e3e3e;stroke-miterlimit:10;stroke-width:2px" />
            <path d="M423.1,274.09l-12.52-16.85V171.75h29.06v7.42h28.71v94.92Zm41.23-72.55v-18.8H435.55v-7.47H414.49v60.46L428.1,254h36.17V209.6h-20.9v26.55h-7.81V201.54Z" transform="translate(-36.4 -26.42)" style="fill:#aca6a5;stroke:#3e3e3e;stroke-miterlimit:10;stroke-width:2px" />
            <path d="M82.73,274.09l12.56-16.85V179H50L37.4,195.85v78.24ZM41.42,227.27V196.93L52.2,182.52H91.38v17.94H62.57V209H91.38v26.71L77.67,254H41.42V235.89h29v-8.62Z" transform="translate(-36.4 -26.42)" style="fill:#aca6a5;stroke:#3e3e3e;stroke-miterlimit:10;stroke-width:2px" />
            <path d="M124.85,182v54.17h7.67V182h21.14v72H132.34V246L120,254h-2.59l-13.69-18.3V182Zm-25.06-3.53v78.83l12.51,16.8h9.79l6.39-4.28v4.28h29.16V254.53l.05-76.07Z" transform="translate(-36.4 -26.42)" style="fill:#aca6a5;stroke:#3e3e3e;stroke-miterlimit:10;stroke-width:2px" />
            <path d="M187.49,236h7.66V201.38h-7.66Zm20.39,37.65,12.22-16.31V195.79l-12.56-16.85h-9.81l-6.39,4.34V179H162.19V289.75h29.16v-16.1Zm-20.64-19.56v16h-21v-87h20.69v8.45l12.91-8.45h5.47L216.2,197.6V236l-13.65,18.2Z" transform="translate(-36.4 -26.42)" style="fill:#aca6a5;stroke:#3e3e3e;stroke-miterlimit:10;stroke-width:2px" />
            <path d="M249.88,236h7.67V201.38h-7.67Zm20.39,37.65,12.21-16.31V195.79l-12.54-16.85h-9.81l-6.39,4.34V179H224.59V289.75h29.14v-16.1Zm-20.63-19.56v16h-21v-87h20.69v8.45l12.9-8.45h5.5l10.88,14.51V236L265,254.16Z" transform="translate(-36.4 -26.42)" style="fill:#aca6a5;stroke:#3e3e3e;stroke-miterlimit:10;stroke-width:2px" />
            <path d="M312.29,236H320V201.38h-7.66Zm20,38.09,12.56-16.85V178.46H299.55L287,195.32v78.77ZM341,235.73,327.26,254H291V196.39L301.8,182H341Z" transform="translate(-36.4 -26.42)" style="fill:#aca6a5;stroke:#3e3e3e;stroke-miterlimit:10;stroke-width:2px" />
            <path d="M378.55,274.09l.05-44.43,28.7.05V195.79L394.79,179H385l-6.39,4.28V179H349.45l-.06,95.09Zm3.68-64.1v-9h-7.66v53.1H353.42V182.52h21.31v8.08l12.32-8.07h5.47l10.84,14.63V210Z" transform="translate(-36.4 -26.42)" style="fill:#aca6a5;stroke:#3e3e3e;stroke-miterlimit:10;stroke-width:2px" />
            <path d="M230.53,297m-30.1,0" transform="translate(-36.4 -26.42)" style="fill:#aca6a5" />
            <path d="M230.53,297m-30.1,0" transform="translate(-36.4 -26.42)" style="fill:#aca6a5;stroke:#3e3e3e;stroke-miterlimit:10;stroke-width:2px" />
            <path d="M229.87,297" transform="translate(-36.4 -26.42)" style="fill:#aca6a5;stroke:#3e3e3e;stroke-miterlimit:10;stroke-width:2px" />
        </g>
    </g>
    <path d="M97.25,317.74v0h.11V318h0v91.72l-13,16.85H37.47V334.49l13-16.85H60.59L67.21,322v-4.23ZM58,321.42H52.37L41.58,335.89v34.35l8.29,10.88H71.38l-.06,7H41.46v18.46H79.07l14.12-18.19V321.26h-22v8.5Zm5.66,44.75V340.06H71.5v26.11Z" transform="translate(-36.4 -26.42)" style="fill:#aca6a5" />
    <path d="M102,299.31h30.16V412.82H102Zm26.11,14.42V302.84H106.25v10.89Zm-21.87,79h21.87V321.49H106.25Z" transform="translate(-36.4 -26.42)" style="fill:#aca6a5" />
    <path d="M136.8,412.82l.06-95.08H167V322l6.62-4.28H183.8l12.91,16.76v34L167,368.43,167,412.86Zm55.84-64.09V335.89l-11.2-14.63H175.8L163,329.33v-8.07H141v71.5h21.87V339.67h7.94v9.05Z" transform="translate(-36.4 -26.42)" style="fill:#aca6a5" />
    <path d="M231.46,412.82h-30.1V299.31h30.1Zm-4-20v-90H205.65v89.92Z" transform="translate(-36.4 -26.42)" style="fill:#aca6a5" />
    <path d="M236.11,412.82V334.58l13-16.85H296V396l-13,16.85ZM270.26,366v8.61h-30v18.15H277.8L292,374.49V347.74h-29.8v-8.55H292V321.26H251.42l-11.14,14.41V366Z" transform="translate(-36.4 -26.42)" style="fill:#aca6a5" />
    <path d="M97.25,317.74v0h.11V318h0v91.72l-13,16.85H37.47V334.49l13-16.85H60.59L67.21,322v-4.23ZM58,321.42H52.37L41.58,335.89v34.35l8.29,10.88H71.38l-.06,7H41.46v18.46H79.07l14.12-18.19V321.26h-22v8.5Zm5.66,44.75V340.06H71.5v26.11Z" transform="translate(-36.4 -26.42)" style="fill:#aca6a5;stroke:#3e3e3e;stroke-miterlimit:10;stroke-width:2px" />
    <path d="M102,299.31h30.16V412.82H102Zm26.11,14.42V302.84H106.25v10.89Zm-21.87,79h21.87V321.49H106.25Z" transform="translate(-36.4 -26.42)" style="fill:#aca6a5;stroke:#3e3e3e;stroke-miterlimit:10;stroke-width:2px" />
    <path d="M136.8,412.82l.06-95.08H167V322l6.62-4.28H183.8l12.91,16.76v34L167,368.43,167,412.86Zm55.84-64.09V335.89l-11.2-14.63H175.8L163,329.33v-8.07H141v71.5h21.87V339.67h7.94v9.05Z" transform="translate(-36.4 -26.42)" style="fill:#aca6a5;stroke:#3e3e3e;stroke-miterlimit:10;stroke-width:2px" />
    <path d="M231.46,412.82h-30.1V299.31h30.1Zm-4-20v-90H205.65v89.92Z" transform="translate(-36.4 -26.42)" style="fill:#aca6a5;stroke:#3e3e3e;stroke-miterlimit:10;stroke-width:2px" />
    <path d="M236.11,412.82V334.58l13-16.85H296V396l-13,16.85ZM270.26,366v8.61h-30v18.15H277.8L292,374.49V347.74h-29.8v-8.55H292V321.26H251.42l-11.14,14.41V366Z" transform="translate(-36.4 -26.42)" style="fill:#aca6a5;stroke:#3e3e3e;stroke-miterlimit:10;stroke-width:2px" />
    <path d="M71.38,340.05H63.6v26.12h7.78Zm-.3-10.29v-8.52H93v67.14l-14.07,18.2H41.45V388.17H71.2l.06-7.06H49.8l-8.24-10.89V335.88L52.31,321.4H58Zm-4-12V322l-6.6-4.34H50.41l-12.94,16.8v92.05H84.21l13-16.85V318H97.1l.06-.21H97v-.06Z" transform="translate(-36.4 -26.42)" style="fill:#aca6a5;stroke:#3e3e3e;stroke-miterlimit:10;stroke-width:2px" />
    <path d="M101.8,412.82h30V299.31h-30Zm4.22-110H127.8v10.9H106Zm0,18.64H127.8v71.3H106Z" transform="translate(-36.4 -26.42)" style="fill:#aca6a5;stroke:#3e3e3e;stroke-miterlimit:10;stroke-width:2px" />
    <path d="M166.53,412.82l.06-44.43h29.59v-33.9l-12.9-16.8H173.19l-6.6,4.28v-4.24h-30l-.06,95.08Zm3.81-64.1v-9h-7.9v53.1h-21.8V321.24h22v8.07l12.7-8.07H181l11.16,14.64v12.84Z" transform="translate(-36.4 -26.42)" style="fill:#aca6a5;stroke:#3e3e3e;stroke-miterlimit:10;stroke-width:2px" />
    <path d="M205.08,302.83H226.8v89.93H205.08Zm25.72-3.52h-30V412.82h30Z" transform="translate(-36.4 -26.42)" style="fill:#aca6a5;stroke:#3e3e3e;stroke-miterlimit:10;stroke-width:2px" />
    <path d="M282.18,412.82,295.13,396V317.73H248.38l-12.94,16.85v78.24ZM239.59,366V335.65l11.11-14.41h40.39v17.93h-29.7v8.57h29.7v26.75L277,392.79H239.59V374.61h29.88V366Z" transform="translate(-36.4 -26.42)" style="fill:#aca6a5;stroke:#3e3e3e;stroke-miterlimit:10;stroke-width:2px" />
</svg>