<svg id="Layer_1" data-name="Layer 1" xmlns="http://www.w3.org/2000/svg" viewBox="0 0 432.96 395.59"><title>gsg-mini-logo</title><g id="Artboard_2" data-name="Artboard 2"><g id="logo_3" data-name="logo 3"><g style="isolation:isolate"><path d="M84.45,29.25v.05h.11l0,.22h0v91.72l-13,16.85H24.67V46l13-16.85H47.79l6.62,4.34V29.25ZM45.23,32.93H39.57L28.78,47.4V81.75l8.29,10.89H58.58l-.06,7H28.66V118.1H66.27L80.39,99.9V32.77h-22v8.5Zm5.66,44.75V51.57H58.7V77.68Z" transform="translate(-23.67 -9.82)" style="fill:#ed6a5a"/><path d="M89.21,10.82h30.16V124.33H89.21Zm26.11,14.42V14.35H93.45V25.24Zm-21.87,79h21.87V33H93.45Z" transform="translate(-23.67 -9.82)" style="fill:#ed6a5a"/><path d="M124,124.33l.06-95.08h30.15v4.28l6.62-4.28H171L183.91,46V80l-29.68-.06-.06,44.43Zm55.84-64.09V47.4l-11.2-14.63H163l-12.76,8.07V32.77H128.19v71.51h21.87V51.19H158v9.05Z" transform="translate(-23.67 -9.82)" style="fill:#ed6a5a"/><path d="M218.66,124.33h-30.1V10.82h30.1Zm-4-20V14.35H192.85v89.93Z" transform="translate(-23.67 -9.82)" style="fill:#ed6a5a"/><path d="M223.31,124.33V46.1l13-16.85h46.9v78.23l-13,16.85Zm34.15-46.81v8.61h-30v18.15H265L279.15,86V59.26h-29.8V50.7h29.8V32.77H238.62L227.48,47.18V77.52Z" transform="translate(-23.67 -9.82)" style="fill:#ed6a5a"/></g><g style="isolation:isolate"><path d="M84.45,29.25v.05h.11l0,.22h0v91.72l-13,16.85H24.67V46l13-16.85H47.79l6.62,4.34V29.25ZM45.23,32.93H39.57L28.78,47.4V81.75l8.29,10.89H58.58l-.06,7H28.66V118.1H66.27L80.39,99.9V32.77h-22v8.5Zm5.66,44.75V51.57H58.7V77.68Z" transform="translate(-23.67 -9.82)" style="fill:none;stroke:#3e3e3e;stroke-miterlimit:10;stroke-width:2px"/><path d="M89.21,10.82h30.16V124.33H89.21Zm26.11,14.42V14.35H93.45V25.24Zm-21.87,79h21.87V33H93.45Z" transform="translate(-23.67 -9.82)" style="fill:none;stroke:#3e3e3e;stroke-miterlimit:10;stroke-width:2px"/><path d="M124,124.33l.06-95.08h30.15v4.28l6.62-4.28H171L183.91,46V80l-29.68-.06-.06,44.43Zm55.84-64.09V47.4l-11.2-14.63H163l-12.76,8.07V32.77H128.19v71.51h21.87V51.19H158v9.05Z" transform="translate(-23.67 -9.82)" style="fill:none;stroke:#3e3e3e;stroke-miterlimit:10;stroke-width:2px"/><path d="M218.66,124.33h-30.1V10.82h30.1Zm-4-20V14.35H192.85v89.93Z" transform="translate(-23.67 -9.82)" style="fill:none;stroke:#3e3e3e;stroke-miterlimit:10;stroke-width:2px"/><path d="M223.31,124.33V46.1l13-16.85h46.9v78.23l-13,16.85Zm34.15-46.81v8.61h-30v18.15H265L279.15,86V59.26h-29.8V50.7h29.8V32.77H238.62L227.48,47.18V77.52Z" transform="translate(-23.67 -9.82)" style="fill:none;stroke:#3e3e3e;stroke-miterlimit:10;stroke-width:2px"/></g><path d="M58.58,51.56H50.8V77.68h7.78Zm-.3-10.29V32.76H80.2V99.89L66.13,118.1H28.65V99.68H58.4l.06-7.05H37L28.76,81.74V47.39L39.51,32.92h5.65Zm-4-12v4.28l-6.6-4.34H37.61L24.67,46v92.05H71.41l13-16.85V29.51H84.3l.06-.21h-.12v-.06Z" transform="translate(-23.67 -9.82)" style="fill:#ed6a5a;stroke:#3e3e3e;stroke-miterlimit:10;stroke-width:2px"/><path d="M89,124.33h30V10.82H89Zm4.22-110H115v10.9H93.21Zm0,18.64H115v71.3H93.21Z" transform="translate(-23.67 -9.82)" style="fill:#ed6a5a;stroke:#3e3e3e;stroke-miterlimit:10;stroke-width:2px"/><path d="M153.73,124.33l.06-44.43h29.59V46l-12.9-16.8H160.39l-6.6,4.28V29.24h-30l-.06,95.09Zm3.81-64.1v-9h-7.9v53.1h-21.8V32.76h22v8.07l12.7-8.07h5.65l11.16,14.63V60.23Z" transform="translate(-23.67 -9.82)" style="fill:#ed6a5a;stroke:#3e3e3e;stroke-miterlimit:10;stroke-width:2px"/><path d="M192.28,14.34H214v89.94H192.28ZM218,10.82H188V124.33h30Z" transform="translate(-23.67 -9.82)" style="fill:#ed6a5a;stroke:#3e3e3e;stroke-miterlimit:10;stroke-width:2px"/><path d="M269.38,124.33l12.95-16.85V29.24H235.58L222.64,46.09v78.24ZM226.79,77.52V47.17L237.9,32.76h40.39V50.69h-29.7v8.57h29.7V86l-14.14,18.31H226.79V86.13h29.88V77.52Z" transform="translate(-23.67 -9.82)" style="fill:#ed6a5a;stroke:#3e3e3e;stroke-miterlimit:10;stroke-width:2px"/><g style="isolation:isolate"><path d="M24.67,257.49V179.26l12.52-16.85H82.38v78.23L69.87,257.49Zm32.9-46.81v8.61H28.69v18.15H64.81l13.67-18.31V192.42H49.76v-8.56H78.48V165.93H39.43L28.69,180.34v30.34Z" transform="translate(-23.67 -9.82)" style="fill:#9bc1bc"/><path d="M144.58,161.86l-.06,76.07v19.56H115.46v-4.28l-6.37,4.28H99.33L86.86,240.7V161.86Zm-53.81,3.53v53.74l13.67,18.31H107l12.29-8.07v8.07h21.25V165.39H119.48v54.17h-7.63V165.39Z" transform="translate(-23.67 -9.82)" style="fill:#9bc1bc"/><path d="M178.12,257.06v16.09H149.06V162.41h29.06v4.28l6.38-4.34h9.76l12.52,16.85v61.55L194.6,257.06Zm11.14-19.56,13.61-18.21V180.94L192,166.47h-5.46l-12.86,8.45v-8.45H153.08v87h21v-16Zm-15-52.72h7.64V219.4h-7.64Z" transform="translate(-23.67 -9.82)" style="fill:#9bc1bc"/><path d="M240.32,257.06v16.09H211.26V162.41h29.06v4.28l6.37-4.34h9.77L269,179.2v61.55L256.8,257.06Zm11.14-19.56,13.61-18.21V180.94l-10.85-14.47h-5.46l-12.86,8.45v-8.45H215.28v87h21v-16Zm-15-52.72h7.64V219.4h-7.64Z" transform="translate(-23.67 -9.82)" style="fill:#9bc1bc"/><path d="M273.46,257.49V178.71L286,161.86h45.19v78.78l-12.52,16.85Zm53.81-92.1H288.21L277.48,179.8v57.64H313.6l13.67-18.31Zm-28.6,19.39h7.64V219.4h-7.64Z" transform="translate(-23.67 -9.82)" style="fill:#9bc1bc"/><path d="M335.65,257.49l.06-95.08h29.06v4.28l6.37-4.28h9.77l12.46,16.79v33.92l-28.6-.06-.06,44.43Zm53.81-64.09V180.56l-10.79-14.63h-5.46L360.92,174v-8.07H339.67v71.51h21.08V184.35h7.64v9.05Z" transform="translate(-23.67 -9.82)" style="fill:#9bc1bc"/><path d="M410.37,257.49l-12.52-16.85V155.15h29.06v7.42h28.71v94.92Zm41.24-72.55v-18.8H422.83v-7.47H401.76v60.46l13.61,18.31h36.18V193H430.64v26.55h-7.81V184.94Z" transform="translate(-23.67 -9.82)" style="fill:#9bc1bc"/></g><g style="isolation:isolate"><path d="M24.67,257.49V179.26l12.52-16.85H82.38v78.23L69.87,257.49Zm32.9-46.81v8.61H28.69v18.15H64.81l13.67-18.31V192.42H49.76v-8.56H78.48V165.93H39.43L28.69,180.34v30.34Z" transform="translate(-23.67 -9.82)" style="fill:none;stroke:#3e3e3e;stroke-miterlimit:10;stroke-width:2px"/><path d="M144.58,161.86l-.06,76.07v19.56H115.46v-4.28l-6.37,4.28H99.33L86.86,240.7V161.86Zm-53.81,3.53v53.74l13.67,18.31H107l12.29-8.07v8.07h21.25V165.39H119.48v54.17h-7.63V165.39Z" transform="translate(-23.67 -9.82)" style="fill:none;stroke:#3e3e3e;stroke-miterlimit:10;stroke-width:2px"/><path d="M178.12,257.06v16.09H149.06V162.41h29.06v4.28l6.38-4.34h9.76l12.52,16.85v61.55L194.6,257.06Zm11.14-19.56,13.61-18.21V180.94L192,166.47h-5.46l-12.86,8.45v-8.45H153.08v87h21v-16Zm-15-52.72h7.64V219.4h-7.64Z" transform="translate(-23.67 -9.82)" style="fill:none;stroke:#3e3e3e;stroke-miterlimit:10;stroke-width:2px"/><path d="M240.32,257.06v16.09H211.26V162.41h29.06v4.28l6.37-4.34h9.77L269,179.2v61.55L256.8,257.06Zm11.14-19.56,13.61-18.21V180.94l-10.85-14.47h-5.46l-12.86,8.45v-8.45H215.28v87h21v-16Zm-15-52.72h7.64V219.4h-7.64Z" transform="translate(-23.67 -9.82)" style="fill:none;stroke:#3e3e3e;stroke-miterlimit:10;stroke-width:2px"/><path d="M273.46,257.49V178.71L286,161.86h45.19v78.78l-12.52,16.85Zm53.81-92.1H288.21L277.48,179.8v57.64H313.6l13.67-18.31Zm-28.6,19.39h7.64V219.4h-7.64Z" transform="translate(-23.67 -9.82)" style="fill:none;stroke:#3e3e3e;stroke-miterlimit:10;stroke-width:2px"/><path d="M335.65,257.49l.06-95.08h29.06v4.28l6.37-4.28h9.77l12.46,16.79v33.92l-28.6-.06-.06,44.43Zm53.81-64.09V180.56l-10.79-14.63h-5.46L360.92,174v-8.07H339.67v71.51h21.08V184.35h7.64v9.05Z" transform="translate(-23.67 -9.82)" style="fill:none;stroke:#3e3e3e;stroke-miterlimit:10;stroke-width:2px"/><path d="M410.37,257.49l-12.52-16.85V155.15h29.06v7.42h28.71v94.92Zm41.24-72.55v-18.8H422.83v-7.47H401.76v60.46l13.61,18.31h36.18V193H430.64v26.55h-7.81V184.94Z" transform="translate(-23.67 -9.82)" style="fill:none;stroke:#3e3e3e;stroke-miterlimit:10;stroke-width:2px"/></g><path d="M70,257.49l12.56-16.85V162.4H37.22L24.67,179.25v78.24ZM28.69,210.67V180.33l10.78-14.41H78.65v17.93H49.84v8.57H78.65v26.71L64.94,237.44H28.69V219.29h29v-8.62Z" transform="translate(-23.67 -9.82)" style="fill:#9bc1bc;stroke:#3e3e3e;stroke-miterlimit:10;stroke-width:2px"/><path d="M112.12,165.38v54.18h7.67V165.38h21.14v72.06H119.61v-8.07l-12.33,8.07h-2.59L91,219.13V165.38Zm-25.06-3.52v78.83l12.51,16.8h9.79l6.39-4.28v4.28h29.16V237.93l.05-76.07Z" transform="translate(-23.67 -9.82)" style="fill:#9bc1bc;stroke:#3e3e3e;stroke-miterlimit:10;stroke-width:2px"/><path d="M174.76,219.4h7.66V184.78h-7.66Zm20.39,37.65,12.22-16.31V179.19l-12.56-16.85H185l-6.39,4.34V162.4H149.46V273.15h29.16v-16.1Zm-20.63-19.56v16h-21v-87H174.2v8.45l12.91-8.45h5.47L203.47,181v38.36l-13.65,18.2Z" transform="translate(-23.67 -9.82)" style="fill:#9bc1bc;stroke:#3e3e3e;stroke-miterlimit:10;stroke-width:2px"/><path d="M237.15,219.4h7.67V184.78h-7.67Zm20.4,37.65,12.21-16.31V179.19l-12.55-16.85h-9.8l-6.4,4.34V162.4H211.86V273.15H241v-16.1Zm-20.63-19.56v16h-21v-87H236.6v8.45l12.9-8.45H255L265.88,181v38.36l-13.65,18.2Z" transform="translate(-23.67 -9.82)" style="fill:#9bc1bc;stroke:#3e3e3e;stroke-miterlimit:10;stroke-width:2px"/><path d="M299.56,219.4h7.66V184.78h-7.66Zm20.05,38.09,12.56-16.85V161.86H286.82l-12.56,16.85v78.78Zm8.64-38.36-13.72,18.31H278.29V179.79l10.78-14.41h39.18Z" transform="translate(-23.67 -9.82)" style="fill:#9bc1bc;stroke:#3e3e3e;stroke-miterlimit:10;stroke-width:2px"/><path d="M365.82,257.49l.05-44.43,28.7.05V179.19L382.06,162.4h-9.79l-6.4,4.28V162.4H336.72l-.06,95.09Zm3.68-64.1v-9h-7.66v53.1H340.69V165.92H362V174l12.33-8.07h5.47l10.84,14.63V193.4Z" transform="translate(-23.67 -9.82)" style="fill:#9bc1bc;stroke:#3e3e3e;stroke-miterlimit:10;stroke-width:2px"/><g style="isolation:isolate"><path d="M84.45,295.57v.05h.11l0,.22h0v91.72l-13,16.85H24.67V312.36l13-16.85H47.79l6.62,4.34v-4.28Zm-39.22,3.68H39.57L28.78,313.72v34.35L37.07,359H58.58l-.06,7H28.66v18.42H66.27l14.12-18.2V299.09h-22v8.5ZM50.89,344V317.89H58.7V344Z" transform="translate(-23.67 -9.82)" style="fill:#ed6a5a"/><path d="M89.21,277.14h30.16V390.65H89.21Zm26.11,14.42V280.67H93.45v10.89Zm-21.87,79h21.87V299.3H93.45Z" transform="translate(-23.67 -9.82)" style="fill:#ed6a5a"/><path d="M124,390.65l.06-95.08h30.15v4.28l6.62-4.28H171l12.93,16.79v33.92l-29.68-.06-.06,44.43Zm55.84-64.09V313.72l-11.2-14.63H163l-12.76,8.07v-8.07H128.19V370.6h21.87V317.51H158v9.05Z" transform="translate(-23.67 -9.82)" style="fill:#ed6a5a"/><path d="M218.66,390.65h-30.1V277.14h30.1Zm-4-20V280.67H192.85V370.6Z" transform="translate(-23.67 -9.82)" style="fill:#ed6a5a"/><path d="M223.31,390.65V312.42l13-16.85h46.9V373.8l-13,16.85Zm34.15-46.81v8.61h-30V370.6H265l14.18-18.31V325.58h-29.8V317h29.8V299.09H238.62L227.48,313.5v30.34Z" transform="translate(-23.67 -9.82)" style="fill:#ed6a5a"/></g><g style="isolation:isolate"><path d="M84.45,295.57v.05h.11l0,.22h0v91.72l-13,16.85H24.67V312.36l13-16.85H47.79l6.62,4.34v-4.28Zm-39.22,3.68H39.57L28.78,313.72v34.35L37.07,359H58.58l-.06,7H28.66v18.42H66.27l14.12-18.2V299.09h-22v8.5ZM50.89,344V317.89H58.7V344Z" transform="translate(-23.67 -9.82)" style="fill:none;stroke:#3e3e3e;stroke-miterlimit:10;stroke-width:2px"/><path d="M89.21,277.14h30.16V390.65H89.21Zm26.11,14.42V280.67H93.45v10.89Zm-21.87,79h21.87V299.3H93.45Z" transform="translate(-23.67 -9.82)" style="fill:none;stroke:#3e3e3e;stroke-miterlimit:10;stroke-width:2px"/><path d="M124,390.65l.06-95.08h30.15v4.28l6.62-4.28H171l12.93,16.79v33.92l-29.68-.06-.06,44.43Zm55.84-64.09V313.72l-11.2-14.63H163l-12.76,8.07v-8.07H128.19V370.6h21.87V317.51H158v9.05Z" transform="translate(-23.67 -9.82)" style="fill:none;stroke:#3e3e3e;stroke-miterlimit:10;stroke-width:2px"/><path d="M218.66,390.65h-30.1V277.14h30.1Zm-4-20V280.67H192.85V370.6Z" transform="translate(-23.67 -9.82)" style="fill:none;stroke:#3e3e3e;stroke-miterlimit:10;stroke-width:2px"/><path d="M223.31,390.65V312.42l13-16.85h46.9V373.8l-13,16.85Zm34.15-46.81v8.61h-30V370.6H265l14.18-18.31V325.58h-29.8V317h29.8V299.09H238.62L227.48,313.5v30.34Z" transform="translate(-23.67 -9.82)" style="fill:none;stroke:#3e3e3e;stroke-miterlimit:10;stroke-width:2px"/></g><path d="M58.58,317.88H50.8V344h7.78Zm-.3-10.3v-8.5H80.2v67.13l-14.07,18.2H28.65V366H58.4l.06-7.05H37l-8.26-10.88V313.71l10.75-14.47h5.65Zm-4-12v4.27l-6.6-4.33H37.61L24.67,312.35v92.06H71.41l13-16.85V295.83H84.3l.06-.22h-.12v-.05Z" transform="translate(-23.67 -9.82)" style="fill:#ed6a5a;stroke:#3e3e3e;stroke-miterlimit:10;stroke-width:2px"/><path d="M89,390.64h30V277.13H89Zm4.22-110H115v10.89H93.21Zm0,18.63H115V370.6H93.21Z" transform="translate(-23.67 -9.82)" style="fill:#ed6a5a;stroke:#3e3e3e;stroke-miterlimit:10;stroke-width:2px"/><path d="M153.73,390.64l.06-44.42h29.59V312.35l-12.9-16.79H160.39l-6.6,4.27v-4.27h-30l-.06,95.08Zm3.81-64.09V317.5h-7.9v53.1h-21.8V299.08h22v8.07l12.7-8.07h5.65l11.16,14.63v12.84Z" transform="translate(-23.67 -9.82)" style="fill:#ed6a5a;stroke:#3e3e3e;stroke-miterlimit:10;stroke-width:2px"/><path d="M192.28,280.66H214V370.6H192.28ZM218,277.13H188V390.64h30Z" transform="translate(-23.67 -9.82)" style="fill:#ed6a5a;stroke:#3e3e3e;stroke-miterlimit:10;stroke-width:2px"/><path d="M269.38,390.64l12.95-16.85V295.56H235.58l-12.94,16.85v78.23Zm-42.59-46.81V313.49l11.11-14.41h40.39V317h-29.7v8.56h29.7v26.71L264.15,370.6H226.79V352.44h29.88v-8.61Z" transform="translate(-23.67 -9.82)" style="fill:#ed6a5a;stroke:#3e3e3e;stroke-miterlimit:10;stroke-width:2px"/></g></g></svg>