<svg id="header_gsg" data-name="header gsg" xmlns="http://www.w3.org/2000/svg" viewBox="0 0 1215.7744 170.8325">
    <title>header gsg</title>
    <path d="M90.1533,169.2109v.0718h.1455l-.0722.2866h.0722V290.8774L74.4365,313.1611H17.1738V191.4233l15.8614-22.2841h12.37l8.0761,5.7324v-5.6607Zm-47.8769,4.8726H35.3643l-13.17,19.1313v45.4278l10.1133,14.4023H58.5752l-.0732,9.3145H22.0488v24.3623H67.9609L85.2061,262.646V173.8687h-26.85v11.25Zm6.9121,59.1851V198.7319h9.5322v34.5367Z" transform="translate(-16.1738 -143.8491)" style="fill:#ee5c48;stroke:#3e3e3e;stroke-miterlimit:10;stroke-width:2px" />
    <path d="M95.9746,144.8491H132.792V294.9614H95.9746Zm31.8692,19.06V149.5063H101.1406v14.4024ZM101.1406,268.45h26.7032V174.1553H101.1406Z" transform="translate(-16.1738 -143.8491)" style="fill:#ee5c48;stroke:#3e3e3e;stroke-miterlimit:10;stroke-width:2px" />
    <path d="M138.4678,294.9614l.0722-125.7505h36.8174v5.6607l8.0772-5.6607h12.3691l15.7891,22.2124v44.8545l-36.2354-.0713-.0722,58.7549Zm68.1777-84.7651V193.2148l-13.68-19.3461h-6.9121l-15.5713,10.6762V173.8687H143.5605V268.45h26.7041v-70.22h9.6768v11.9658Z" transform="translate(-16.1738 -143.8491)" style="fill:#ee5c48;stroke:#3e3e3e;stroke-miterlimit:10;stroke-width:2px" />
    <path d="M254.0127,294.9614H217.2686V144.8491h36.7441ZM249.0654,268.45V149.5063H222.5068V268.45Z" transform="translate(-16.1738 -143.8491)" style="fill:#ee5c48;stroke:#3e3e3e;stroke-miterlimit:10;stroke-width:2px" />
    <path d="M259.69,294.9614V191.4951l15.8613-22.2842h57.2637V272.6777l-15.8624,22.2837Zm41.6923-61.9077v11.3926h-36.6V268.45H310.55l17.3174-24.2188V208.9067H291.4863V197.5854h36.3809V173.8687H278.3887l-13.6065,19.06v40.1255Z" transform="translate(-16.1738 -143.8491)" style="fill:#ee5c48;stroke:#3e3e3e;stroke-miterlimit:10;stroke-width:2px" />
    <path d="M358.1748,291.4673V188.001l15.3867-22.2842h55.5469V269.1836l-15.3867,22.2837ZM398.6172,229.56v11.3925h-35.502v24.004h44.3955l16.7979-24.2188V205.4126h-35.29V194.0913h35.29V170.3745H376.3145l-13.1993,19.06V229.56Z" transform="translate(-16.1738 -143.8491)" style="fill:#50bcb8;stroke:#3e3e3e;stroke-miterlimit:10;stroke-width:2px" />
    <path d="M505.5469,165.0005l-.0713,100.6v25.8667H469.7627v-5.6607l-7.835,5.6607H449.93l-15.3164-22.2124V165.0005Zm-66.1338,4.6572v71.08l16.7978,24.2188h3.1758L474.4912,254.28v10.6763h26.1143V169.6577H474.7031v71.6528h-9.3877V169.6577Z" transform="translate(-16.1738 -143.8491)" style="fill:#50bcb8;stroke:#3e3e3e;stroke-miterlimit:10;stroke-width:2px" />
    <path d="M546.7646,290.894v21.2808H511.0508V165.7168h35.7138v5.6606l7.834-5.7324h11.9991l15.3867,22.2842v81.3975L567.0215,290.894Zm13.6924-25.8667,16.7276-24.0752v-50.73l-13.34-19.1314H557.14L541.33,182.2686V171.0908H515.9912V286.165h25.7617V265.0273ZM542.0361,195.31h9.3868v45.7861h-9.3868Z" transform="translate(-16.1738 -143.8491)" style="fill:#50bcb8;stroke:#3e3e3e;stroke-miterlimit:10;stroke-width:2px" />
    <path d="M623.2031,290.894v21.2808H587.4893V165.7168h35.7138v5.6606l7.834-5.7324h11.999l15.3868,22.2842v81.3975L643.46,290.894Zm13.6924-25.8667,16.7275-24.0752v-50.73l-13.34-19.1314h-6.7051l-15.8095,11.1778V171.0908H592.43V286.165h25.7617V265.0273ZM618.4746,195.31h9.3867v45.7861h-9.3867Z" transform="translate(-16.1738 -143.8491)" style="fill:#50bcb8;stroke:#3e3e3e;stroke-miterlimit:10;stroke-width:2px" />
    <path d="M663.9277,291.4673V187.2842l15.3868-22.2837h55.5468V269.1836l-15.3867,22.2837Zm66.1338-121.81H682.0674l-13.1992,19.06v76.2388h44.3955l16.7978-24.2188ZM694.9131,195.31H704.3v45.7861h-9.3867Z" transform="translate(-16.1738 -143.8491)" style="fill:#50bcb8;stroke:#3e3e3e;stroke-miterlimit:10;stroke-width:2px" />
    <path d="M740.3652,291.4673l.0713-125.7505h35.7129v5.6606l7.835-5.6606h11.998l15.3164,22.2124v44.8545l-35.1494-.0713-.07,58.7549Zm66.1338-84.7652V189.7207L793.23,170.3745h-6.7051l-15.1035,10.6763V170.3745H745.3057v94.5816H771.209v-70.22h9.3867v11.9658Z" transform="translate(-16.1738 -143.8491)" style="fill:#50bcb8;stroke:#3e3e3e;stroke-miterlimit:10;stroke-width:2px" />
    <path d="M832.19,291.4673l-15.3867-22.2837V156.1152h35.7139v9.8164h35.29V291.4673Zm50.6768-95.9429V170.6611H847.5059v-9.8882H821.6035v79.9644l16.7276,24.2188h44.4648V206.1289h-25.69v35.11h-9.6V195.5244Z" transform="translate(-16.1738 -143.8491)" style="fill:#50bcb8;stroke:#3e3e3e;stroke-miterlimit:10;stroke-width:2px" />
    <path d="M988.2871,169.7314v.0718h.1455l-.0722.2866h.0722V291.3979L972.57,313.6816H915.3076V191.9438L931.1689,169.66h12.37l8.0761,5.7324v-5.6607ZM940.41,174.604H933.498l-13.17,19.1314v45.4277l10.1133,14.4023H956.709l-.0733,9.3145H920.1826v24.3623h45.9121L983.34,263.1665V174.3892H956.49v11.25Zm6.9121,59.1851V199.2524h9.5322v34.5367Z" transform="translate(-16.1738 -143.8491)" style="fill:#ee5c48;stroke:#3e3e3e;stroke-miterlimit:10;stroke-width:2px" />
    <path d="M994.1084,145.37h36.8174V295.4819H994.1084Zm31.8691,19.06V150.0269H999.2744v14.4023ZM999.2744,268.9707h26.7031V174.6758H999.2744Z" transform="translate(-16.1738 -143.8491)" style="fill:#ee5c48;stroke:#3e3e3e;stroke-miterlimit:10;stroke-width:2px" />
    <path d="M1036.6016,295.4819l.0722-125.75h36.8174v5.6607l8.0772-5.6607h12.3691l15.7891,22.2124v44.8545l-36.2354-.0712-.0723,58.7548Zm68.1777-84.7651V193.7354l-13.68-19.3462h-6.9121l-15.5713,10.6762V174.3892h-26.9219v94.5815h26.7041v-70.22h9.6768v11.9658Z" transform="translate(-16.1738 -143.8491)" style="fill:#ee5c48;stroke:#3e3e3e;stroke-miterlimit:10;stroke-width:2px" />
    <path d="M1152.1465,295.4819h-36.7442V145.37h36.7442Zm-4.9473-26.5112V150.0269h-26.5586V268.9707Z" transform="translate(-16.1738 -143.8491)" style="fill:#ee5c48;stroke:#3e3e3e;stroke-miterlimit:10;stroke-width:2px" />
    <path d="M1157.8232,295.4819V192.0156l15.8614-22.2842h57.2636V273.1982l-15.8623,22.2837Zm41.6924-61.9077v11.3926h-36.6v24.0039h45.7676l17.3174-24.2187V209.4272H1189.62V198.106h36.3809V174.3892h-49.4785l-13.6065,19.06v40.1255Z" transform="translate(-16.1738 -143.8491)" style="fill:#ee5c48;stroke:#3e3e3e;stroke-miterlimit:10;stroke-width:2px" />
</svg>